<?xml version="1.0" standalone="no"?>
<!DOCTYPE svg PUBLIC "-//W3C//DTD SVG 20010904//EN"
 "http://www.w3.org/TR/2001/REC-SVG-20010904/DTD/svg10.dtd">
<svg version="1.0" xmlns="http://www.w3.org/2000/svg"
 width="500.000000pt" height="500.000000pt" viewBox="0 0 500.000000 500.000000"
 preserveAspectRatio="xMidYMid meet">
<metadata>
Created by potrace 1.14, written by Peter Selinger 2001-2017
</metadata>
<g transform="translate(0.000000,500.000000) scale(0.100000,-0.100000)"
fill="#000000" stroke="none">
<path d="M574 2495 l0 -1785 40 -1 c23 0 65 -1 94 -1 48 0 52 -2 46 -20 -4
-15 -2 -19 7 -16 8 3 13 12 11 22 -2 9 2 16 8 16 5 0 10 -5 10 -11 0 -8 6 -7
16 2 15 12 16 11 10 -9 -5 -14 -3 -22 4 -22 6 0 8 5 4 11 -5 8 1 10 20 7 32
-6 34 -1 4 12 -19 7 -17 9 14 7 44 -2 47 -10 16 -31 -12 -9 -17 -16 -11 -16 6
0 16 7 23 15 14 17 46 20 55 5 8 -13 25 -3 25 13 0 8 -3 9 -8 1 -5 -7 -14 -7
-31 2 -21 11 -18 12 28 11 53 0 59 -5 39 -25 -7 -7 -8 -12 -4 -12 5 0 15 8 22
18 12 17 74 26 74 10 0 -4 5 -8 11 -8 5 0 8 3 6 8 -3 4 10 8 29 9 39 2 38 4
23 -34 -12 -31 -2 -25 15 9 10 21 19 23 84 24 73 2 82 -2 60 -24 -7 -7 -8 -12
-4 -12 5 0 15 8 22 17 13 19 89 29 77 10 -4 -6 0 -8 10 -4 12 4 17 1 18 -11 0
-13 2 -13 6 -3 3 8 -3 20 -13 28 -13 9 -18 26 -19 58 0 25 4 45 8 45 5 0 5 6
0 13 -11 17 -11 107 0 107 6 0 6 5 0 13 -17 22 -3 147 17 147 4 0 15 -9 25
-20 19 -20 8 -29 -12 -9 -7 7 -13 7 -17 1 -3 -5 1 -15 9 -22 8 -7 15 -18 15
-24 0 -6 -4 -5 -9 3 -6 9 -11 10 -15 2 -4 -6 -2 -11 3 -11 6 0 11 -5 11 -11 0
-5 -4 -8 -9 -4 -5 3 -13 0 -16 -6 -11 -17 3 -23 20 -9 18 15 21 0 3 -18 -15
-15 -19 -42 -7 -42 6 0 7 -5 4 -10 -4 -6 -12 -7 -18 -3 -7 4 -5 -2 3 -12 13
-17 13 -18 0 -10 -9 5 -12 5 -7 -1 5 -5 14 -9 19 -9 6 0 13 -6 16 -13 3 -11 0
-12 -17 -3 -14 8 -21 8 -21 1 0 -5 7 -10 16 -10 10 0 12 -4 7 -12 -4 -7 -8
-20 -8 -28 0 -8 -4 -21 -9 -28 -7 -11 -4 -11 13 0 12 7 21 17 21 23 0 5 5 3
10 -5 11 -17 14 -37 4 -27 -11 10 -45 -13 -38 -25 4 -6 3 -8 -3 -5 -5 3 -10 0
-10 -8 0 -9 11 -5 34 12 20 15 32 32 28 40 -3 7 -7 19 -10 26 -3 8 4 18 17 25
13 6 17 11 10 11 -6 1 -21 -8 -31 -18 -11 -11 -22 -17 -25 -13 -4 3 7 18 24
33 16 15 30 34 30 41 -1 7 -6 3 -13 -10 -7 -12 -16 -20 -20 -16 -3 4 -1 16 5
28 16 28 18 46 7 46 -6 0 -9 -7 -7 -16 2 -10 -2 -19 -8 -21 -12 -4 -14 51 -1
63 4 4 7 3 7 -3 0 -6 9 -13 21 -16 18 -5 17 -3 -5 18 -31 29 -35 51 -7 33 11
-7 17 -16 14 -22 -3 -5 -1 -6 6 -2 8 6 5 15 -14 31 -28 27 -33 40 -9 31 8 -3
12 -2 9 4 -3 6 0 10 7 10 7 0 2 7 -10 16 -12 8 -20 20 -16 25 3 5 0 17 -7 25
-11 13 -10 15 2 14 7 -1 21 -2 29 -1 13 1 13 3 1 10 -8 5 -21 6 -30 3 -13 -5
-14 -3 -3 10 10 12 9 18 -3 28 -17 14 -17 14 -32 -14 -9 -17 -11 -15 -10 12 2
33 19 39 45 15 7 -7 19 -13 25 -13 7 0 6 5 -3 11 -11 8 -12 12 -2 16 6 2 12
10 12 16 0 8 -4 7 -12 -1 -24 -24 -27 -11 -6 23 11 20 18 39 14 42 -3 4 -6 0
-6 -8 0 -11 -2 -11 -10 1 -13 20 -13 33 0 25 5 -3 18 -1 27 5 17 11 16 11 -1
5 -11 -3 -23 0 -28 7 -12 20 -10 34 4 20 7 -7 16 -12 21 -12 5 0 -2 10 -17 21
-15 12 -25 24 -22 27 3 3 16 -3 28 -14 13 -10 18 -12 11 -5 -9 11 -8 19 4 38
14 21 14 23 -1 17 -9 -3 -14 -10 -11 -14 3 -5 2 -11 -3 -13 -4 -3 -13 6 -19
19 -11 23 -10 24 10 18 20 -6 20 -6 4 10 -23 24 -22 43 2 22 15 -14 21 -15 27
-4 4 7 4 10 -1 6 -9 -8 -40 20 -31 29 3 3 12 1 19 -5 10 -9 14 -8 14 3 0 8 -4
12 -9 9 -4 -3 -8 0 -8 7 0 8 -4 8 -16 -2 -14 -11 -15 -10 -12 7 1 10 10 22 18
26 13 6 12 7 -2 7 -22 1 -12 37 15 56 12 8 16 15 10 15 -6 0 -16 -7 -23 -15
-7 -8 -18 -15 -24 -15 -6 0 2 12 17 25 15 14 25 25 21 25 -4 0 -16 -7 -26 -17
-10 -9 -18 -11 -18 -5 0 6 5 14 10 17 6 4 8 16 4 28 -5 18 -4 20 7 10 7 -7 17
-13 22 -13 5 0 -2 10 -17 21 -15 12 -25 24 -22 27 3 3 16 -3 28 -14 13 -10 18
-12 11 -5 -9 11 -8 19 4 38 14 21 14 23 -1 17 -9 -3 -14 -10 -11 -14 3 -5 2
-11 -3 -13 -4 -3 -13 6 -19 19 -11 23 -10 24 10 18 20 -6 20 -6 4 10 -23 24
-22 43 2 22 15 -14 21 -15 27 -4 4 7 4 10 -1 6 -7 -7 -17 1 -45 36 -14 18 -13
18 10 11 23 -7 23 -7 7 9 -23 24 -22 43 2 22 15 -14 21 -15 27 -4 4 7 4 10 -1
6 -4 -4 -14 -1 -21 7 -16 15 -19 29 -5 20 5 -3 13 0 17 6 5 8 3 9 -6 4 -9 -5
-10 -2 -5 14 4 12 0 30 -9 43 -19 26 -21 47 -4 30 7 -7 16 -12 21 -12 5 0 -2
10 -17 21 -15 12 -25 24 -22 27 3 3 16 -3 28 -14 13 -10 18 -12 11 -5 -9 11
-8 19 4 38 14 21 14 23 -1 17 -9 -3 -14 -10 -11 -14 3 -5 2 -11 -3 -13 -4 -3
-13 6 -19 19 -11 23 -10 24 10 18 20 -6 20 -6 4 10 -23 24 -22 43 2 22 15 -14
21 -15 27 -4 4 7 4 10 0 6 -4 -3 -16 1 -26 10 -14 12 -17 19 -8 29 7 9 7 13
-1 13 -7 0 -10 4 -6 9 3 5 1 12 -5 16 -5 3 -10 11 -10 18 0 8 3 8 12 -1 7 -7
16 -12 21 -12 5 0 -1 9 -14 20 -13 10 -19 19 -14 20 6 0 16 -5 22 -11 8 -8 13
-8 18 0 3 6 1 10 -5 9 -7 -2 -16 7 -21 20 -5 13 -5 22 1 22 6 0 10 -8 11 -17
0 -13 2 -14 6 -4 3 8 0 19 -8 25 -8 6 -16 18 -17 26 -2 8 -6 24 -9 35 -2 11
-5 26 -5 33 -1 6 -5 12 -9 12 -4 0 -7 -9 -6 -20 1 -11 5 -20 10 -20 4 0 5 -5
2 -10 -15 -24 -30 18 -30 80 0 36 -4 73 -8 84 -6 12 -5 16 1 12 6 -3 13 -2 17
4 3 5 2 10 -3 10 -5 0 -9 6 -10 13 0 6 -3 38 -6 70 -5 43 -3 56 5 51 8 -5 9
-3 3 7 -13 21 -15 47 -5 54 5 3 12 1 16 -5 3 -5 1 -10 -5 -10 -6 0 -4 -10 5
-24 15 -22 15 -25 -1 -34 -16 -9 -15 -10 4 -16 12 -4 22 -12 22 -19 0 -8 -3
-8 -12 1 -15 15 -28 16 -28 2 0 -6 6 -9 13 -8 6 2 11 -3 9 -9 -1 -7 2 -13 7
-13 14 0 22 30 13 48 -11 25 -9 52 7 61 11 7 9 10 -8 16 -12 3 -19 11 -15 16
3 5 10 7 15 4 5 -4 9 -1 9 4 0 6 -8 11 -17 11 -13 0 -14 3 -6 8 9 6 7 11 -7
20 -12 7 -20 8 -20 2 0 -5 4 -10 8 -10 4 0 8 -8 9 -18 1 -12 -6 -18 -20 -19
-12 0 -16 1 -9 4 6 3 9 10 5 16 -10 17 -13 88 -3 82 5 -3 7 -14 5 -25 -2 -12
0 -18 6 -14 5 3 18 0 27 -8 16 -12 16 -11 2 6 -14 18 -13 18 10 12 14 -4 20
-4 15 1 -15 11 -13 49 3 46 6 -2 12 2 12 7 0 13 -17 13 -25 0 -4 -6 -11 -7
-17 -4 -6 4 -5 9 3 15 8 4 15 17 15 28 1 11 -3 18 -7 15 -5 -3 -12 2 -15 10
-3 9 -10 13 -15 10 -18 -11 -8 8 14 28 12 11 17 17 11 14 -13 -6 -39 38 -30
52 3 5 0 14 -7 20 -9 8 -12 2 -13 -23 0 -19 3 -32 7 -29 4 2 11 -1 15 -7 5 -8
2 -10 -7 -5 -8 4 -5 0 6 -10 15 -12 16 -15 3 -11 -12 4 -15 0 -13 -16 1 -12 6
-31 11 -41 5 -12 4 -17 -3 -13 -6 4 -9 -3 -7 -18 1 -14 -2 -25 -8 -25 -6 0 -8
9 -5 20 3 11 2 22 -2 24 -3 3 -6 39 -6 80 0 45 -4 76 -10 76 -7 0 -7 3 0 8 13
9 18 32 7 32 -9 0 -10 125 -1 134 3 3 6 0 7 -7 0 -6 3 -21 5 -32 2 -11 1 -24
-3 -30 -10 -13 -9 -45 1 -39 5 2 6 11 2 19 -3 8 0 15 6 15 6 0 12 -7 12 -15 2
-19 4 -25 13 -47 4 -9 5 -21 2 -27 -4 -5 -1 -13 5 -17 8 -4 7 -9 -2 -15 -12
-7 -12 -10 0 -21 10 -10 12 -10 7 0 -4 6 -2 12 4 12 7 0 10 -7 7 -15 -4 -8 -2
-17 4 -21 6 -3 8 -11 6 -17 -2 -7 2 -27 10 -44 7 -18 10 -33 6 -33 -5 0 -3 -4
3 -8 17 -12 33 -99 20 -113 -8 -9 -8 -10 0 -6 14 8 27 -20 17 -35 -3 -6 -2 -8
4 -5 6 4 16 -18 23 -51 8 -31 15 -61 16 -67 16 -54 345 -1258 415 -1520 51
-187 95 -343 98 -347 4 -4 55 -9 114 -10 59 -1 107 -6 107 -11 0 -4 6 -5 13 0
16 11 67 12 67 1 0 -4 5 -8 11 -8 5 0 8 3 6 8 -3 4 10 8 29 9 39 2 38 4 23
-34 -12 -31 -2 -25 15 9 10 21 19 23 84 24 73 2 82 -2 60 -24 -7 -7 -8 -12 -4
-12 5 0 15 8 22 18 12 17 74 26 74 10 0 -4 5 -8 11 -8 5 0 8 3 6 8 -3 4 10 8
29 9 39 2 38 4 23 -34 -12 -31 -2 -25 15 9 10 19 20 23 59 24 33 1 45 -3 39
-11 -4 -6 3 0 14 13 14 15 20 32 16 45 -5 19 -4 19 10 6 15 -13 15 -16 0 -33
-10 -11 -11 -16 -4 -12 20 12 13 -7 -11 -29 -13 -11 -17 -16 -10 -11 7 5 13 5
13 0 0 -14 32 36 34 54 2 9 9 18 16 20 7 3 10 0 6 -6 -3 -6 1 -9 9 -8 21 3 48
43 35 51 -5 3 -10 11 -10 18 0 8 3 8 12 -1 7 -7 16 -12 22 -12 5 0 1 6 -9 14
-22 16 -39 11 -31 -10 7 -18 -8 -18 -23 -1 -8 11 -5 17 14 27 13 7 21 18 18
23 -4 7 1 8 12 3 18 -7 18 -6 1 13 -17 19 -17 20 6 32 13 7 27 12 31 11 5 -1
5 2 2 8 -5 8 -14 6 -31 -4 -29 -20 -40 -20 -24 -1 6 8 9 19 5 25 -3 5 -1 10 4
10 6 0 11 -5 11 -12 0 -9 3 -9 11 -1 6 6 19 9 28 6 13 -4 13 -3 2 5 -8 6 -19
8 -26 6 -7 -3 -11 4 -10 18 1 13 -2 29 -8 36 -12 15 5 16 20 1 6 -6 9 -18 6
-27 -4 -9 -2 -13 4 -9 6 4 13 2 15 -5 3 -7 7 -5 11 6 4 9 3 15 -2 12 -5 -3
-12 1 -15 10 -5 12 -2 15 11 10 16 -5 16 -5 2 6 -14 12 -14 15 0 39 9 14 23
24 31 22 13 -4 13 -3 0 6 -8 5 -18 7 -22 5 -15 -10 -8 6 13 27 24 24 20 45 -8
42 -12 -1 -20 4 -20 13 0 9 6 13 14 10 8 -3 11 -2 8 3 -3 5 -1 12 4 15 5 4 12
-3 16 -14 3 -11 11 -20 16 -20 12 0 4 17 -23 47 l-20 21 31 17 c19 9 29 20 25
27 -5 7 -2 9 9 5 11 -4 14 -2 10 9 -4 11 -9 12 -19 3 -9 -7 -14 -8 -14 -1 0 6
12 20 28 32 18 14 20 18 6 11 -29 -14 -40 -1 -11 14 16 8 26 9 37 1 8 -6 7 -1
-4 11 -14 17 -16 26 -8 35 7 9 6 19 -4 32 -24 34 -14 42 13 11 23 -27 24 -28
10 -3 -15 24 -15 27 0 32 9 4 13 9 10 13 -4 3 -13 0 -22 -7 -9 -8 -15 -8 -15
-2 0 6 5 14 10 17 8 5 7 12 -2 22 -11 14 -10 15 9 9 12 -4 24 -2 28 4 9 15 28
12 19 -2 -4 -7 -3 -9 1 -5 5 4 10 14 11 23 2 14 0 14 -21 0 -32 -21 -38 -20
-23 3 7 11 15 18 18 16 3 -2 7 5 7 16 1 11 -2 17 -7 14 -5 -3 -8 4 -7 15 1 11
7 20 14 20 7 0 20 11 28 24 13 20 14 29 5 47 -10 17 -9 23 1 30 8 5 10 9 4 9
-5 0 -2 5 8 11 9 6 14 15 11 21 -5 8 -1 9 10 5 10 -4 15 -3 11 3 -4 6 -18 8
-31 6 -17 -3 -24 -1 -21 7 2 7 13 11 23 9 18 -2 18 -2 1 8 -17 11 -15 30 4 30
6 0 7 -5 4 -11 -4 -6 2 -5 14 2 22 14 9 32 -16 22 -7 -3 -13 0 -13 6 0 11 11
14 40 12 8 0 5 4 -7 11 -13 6 -23 15 -23 20 0 11 17 10 25 -2 8 -13 25 -13 25
1 0 5 -3 8 -7 6 -10 -6 -34 19 -26 26 3 3 16 -1 30 -10 19 -13 23 -13 21 -2
-2 8 2 13 8 12 6 -1 11 5 11 13 0 12 -4 11 -18 -2 -15 -14 -21 -14 -34 -4 -14
11 -14 15 0 36 8 13 12 30 8 40 -5 14 -3 15 16 4 13 -6 25 -9 29 -6 3 3 0 6
-6 6 -14 0 -42 29 -42 43 0 7 7 3 15 -7 13 -17 15 -18 15 -3 0 9 5 17 10 17 6
0 1 9 -10 20 -11 11 -20 25 -20 31 0 5 -5 7 -11 3 -6 -3 -7 -9 -3 -13 5 -3 15
-14 22 -23 12 -15 11 -17 -7 -15 -12 1 -19 7 -17 13 3 7 -2 18 -9 24 -10 9
-12 17 -5 30 5 9 7 20 4 23 -3 3 -2 12 2 19 5 7 9 16 10 21 1 4 3 9 4 12 1 3
4 14 5 25 1 11 4 22 5 25 1 3 4 10 5 15 1 6 4 13 5 18 1 4 2 11 1 16 -1 5 3
12 10 16 6 4 12 21 12 38 1 22 6 28 17 24 13 -5 13 -3 1 12 -10 12 -11 20 -3
28 6 6 8 17 5 24 -3 8 0 14 5 14 6 0 9 9 7 20 -2 11 0 22 5 25 5 3 7 12 4 19
-3 8 0 17 5 21 6 3 8 11 5 17 -4 7 -2 8 5 4 8 -5 10 0 7 18 -3 14 0 28 5 32 5
3 7 9 4 14 -3 5 -1 11 4 15 6 3 8 12 4 20 -3 8 0 15 7 15 6 0 9 4 5 9 -3 5 -1
12 4 15 5 4 8 14 6 24 -1 9 4 29 11 43 7 15 10 29 7 32 -3 4 -1 13 5 20 7 8 8
18 4 22 -4 5 -1 5 6 1 6 -4 12 -2 12 3 0 6 -6 11 -12 11 -8 0 -9 3 -3 8 10 7
16 23 18 54 1 10 5 18 10 18 4 0 6 4 2 9 -3 5 2 17 11 25 11 12 12 16 2 16 -9
0 -9 3 -2 8 6 4 10 16 9 28 -1 11 4 21 11 21 7 0 10 -5 7 -10 -4 -6 -1 -7 7
-2 10 6 9 11 -4 21 -12 8 -15 18 -10 26 5 7 10 22 11 33 2 10 9 23 16 27 9 6
8 8 -3 8 -12 0 -13 2 -1 9 7 5 11 13 8 18 -4 6 0 18 7 29 12 16 13 15 9 -11
-2 -17 -4 -40 -4 -52 0 -12 -7 -27 -17 -32 -14 -9 -14 -10 -2 -11 12 0 16 -12
15 -50 0 -27 -3 -50 -6 -50 -3 0 -5 -12 -3 -27 1 -15 -3 -34 -9 -42 -8 -9 -8
-12 -1 -8 17 10 14 -80 -2 -94 -16 -13 -19 1 -4 19 7 9 7 9 -2 2 -16 -13 -38
-13 -38 1 0 5 4 8 9 5 12 -8 44 31 36 44 -3 5 -10 8 -14 5 -5 -2 -8 6 -8 20 0
13 4 23 9 22 6 -1 12 6 13 16 2 9 -1 14 -7 11 -6 -4 -6 2 1 14 15 28 14 35 -3
20 -8 -7 -12 -21 -10 -31 2 -11 -1 -15 -8 -11 -7 5 -8 2 -3 -6 6 -9 4 -11 -5
-5 -9 5 -11 4 -6 -4 4 -6 4 -17 -1 -24 -5 -7 -9 -23 -8 -37 1 -14 -3 -33 -7
-43 -5 -9 -5 -17 -1 -16 20 3 34 -2 28 -11 -3 -5 -13 -6 -21 -3 -13 5 -15 1
-10 -18 3 -13 3 -18 0 -11 -3 6 -10 9 -16 6 -5 -3 0 -13 11 -21 12 -8 21 -19
21 -25 0 -6 -9 -3 -19 6 -23 21 -29 12 -25 -32 2 -25 -1 -32 -11 -28 -9 3 -12
-1 -10 -15 2 -11 0 -17 -4 -15 -4 3 -8 -1 -8 -9 0 -8 5 -15 11 -15 6 0 4 -5
-5 -10 -11 -6 -16 -20 -14 -40 1 -17 -2 -30 -9 -30 -6 0 -4 -5 4 -10 11 -7 11
-10 2 -10 -7 0 -11 -4 -7 -9 3 -6 -2 -14 -11 -19 -11 -6 -13 -11 -5 -16 16
-10 14 -29 -3 -23 -10 4 -13 0 -11 -14 2 -11 0 -17 -4 -15 -4 3 -8 -1 -8 -9 0
-8 5 -11 11 -7 22 13 35 10 33 -9 -1 -10 -7 -19 -15 -19 -7 0 -10 5 -7 10 3 6
1 10 -5 10 -7 0 -9 -7 -6 -16 4 -10 2 -13 -7 -8 -6 4 -9 4 -5 -1 4 -4 2 -17
-4 -29 -15 -26 -17 -55 -6 -78 5 -11 5 -18 -2 -19 -5 -1 -14 -2 -19 -3 -5 0
-13 -5 -18 -10 -4 -5 -3 -7 3 -3 6 3 11 0 11 -8 0 -8 -5 -11 -10 -8 -6 3 -7 1
-3 -6 4 -6 12 -9 17 -6 5 4 9 2 9 -4 0 -5 -4 -13 -10 -16 -5 -3 -10 -1 -10 5
0 6 -5 8 -11 4 -8 -4 -7 -9 2 -15 7 -4 17 -5 21 -3 4 3 7 -5 5 -17 -1 -12 4
-24 11 -26 6 -3 12 0 12 7 0 6 -5 8 -10 5 -5 -3 -10 -2 -10 3 0 12 27 23 33
14 2 -4 3 -2 1 4 -1 6 2 16 7 21 7 7 1 18 -17 32 -18 14 -22 21 -11 21 9 0 19
-4 22 -10 3 -5 14 -10 23 -9 12 0 11 3 -5 9 -13 5 -23 14 -23 20 0 8 7 7 23 0
18 -9 20 -9 7 2 -17 15 -24 38 -11 38 5 0 14 -7 21 -15 7 -8 16 -15 21 -15 5
0 0 9 -12 21 -12 12 -27 18 -38 14 -12 -3 -18 0 -18 10 0 10 6 13 17 10 10 -3
23 1 30 10 7 9 8 15 2 15 -6 0 -12 -6 -15 -12 -2 -7 -8 -10 -12 -6 -4 4 2 19
14 34 11 14 18 30 15 35 -3 5 3 9 13 9 17 1 17 1 1 11 -10 5 -18 14 -18 20 0
5 11 2 24 -6 26 -17 28 -13 12 33 -6 17 -11 20 -20 13 -13 -11 -26 -5 -26 11
0 5 4 7 9 3 5 -3 16 1 24 9 8 8 18 12 22 8 5 -4 5 -2 1 5 -3 6 4 19 16 28 l23
17 -25 -8 c-22 -6 -23 -5 -11 10 12 14 12 16 -4 10 -15 -6 -15 -4 -4 13 9 16
15 18 25 9 6 -6 9 -15 6 -20 -3 -5 0 -6 6 -2 6 4 9 13 5 21 -5 15 -16 19 -42
15 -12 -1 -13 1 -2 14 7 8 19 12 26 10 8 -3 18 5 25 18 10 21 10 21 -3 6 -17
-22 -24 -23 -24 -3 0 8 5 15 10 15 5 0 6 7 3 16 -4 12 -1 14 14 9 12 -4 20 -2
20 5 0 6 -4 8 -10 5 -5 -3 -10 1 -10 10 0 11 5 15 15 11 19 -7 19 -1 0 17 -13
13 -13 16 0 27 12 10 15 9 15 -4 0 -9 4 -16 8 -16 5 0 7 -459 5 -1020 l-4
-1020 83 -1 c46 -1 122 -1 171 -1 87 0 97 -4 75 -26 -7 -7 -8 -12 -4 -12 5 0
15 8 22 17 12 18 74 27 74 11 0 -4 5 -8 11 -8 5 0 8 3 6 8 -3 4 10 8 29 9 39
2 38 4 23 -34 -12 -31 -2 -25 15 9 10 20 20 23 69 23 50 1 56 -1 51 -17 -3
-10 0 -18 6 -18 6 0 8 5 4 11 -5 8 1 10 20 7 32 -6 34 -1 4 12 -19 7 -17 9 14
7 44 -2 47 -10 16 -31 -12 -9 -17 -16 -11 -16 6 0 16 7 23 15 14 16 46 20 54
6 6 -9 46 -22 46 -15 0 2 -19 12 -42 24 l-43 20 33 -2 c17 -1 32 -5 32 -9 0
-4 7 -10 16 -13 14 -5 15 -4 5 8 -9 11 -7 14 14 14 23 0 30 -9 26 -31 -1 -5 3
-5 9 -2 6 4 9 13 6 21 -7 19 18 18 34 -1 7 -8 17 -12 22 -9 5 3 2 14 -8 25 -9
10 -20 17 -23 15 -4 -3 -6 165 -6 372 1 251 -2 382 -9 391 -9 12 -7 12 12 2
17 -9 21 -16 13 -25 -7 -9 -7 -16 2 -25 9 -9 9 -14 -1 -20 -11 -7 -10 -9 3
-14 9 -4 18 -1 21 8 3 8 15 17 26 21 11 3 17 8 15 11 -3 2 -14 0 -26 -6 -12
-7 -22 -7 -26 -2 -5 8 31 27 45 24 3 -1 7 8 7 19 2 19 1 19 -11 3 -15 -21 -46
-14 -42 9 3 21 16 32 17 15 1 -8 1 -18 0 -22 -1 -5 3 -6 8 -3 10 7 12 56 1 56
-4 0 -13 -7 -20 -15 -7 -8 -17 -12 -23 -8 -6 4 -7 1 -2 -7 5 -8 4 -11 -2 -7
-5 3 -9 41 -8 84 1 43 -3 83 -7 90 -5 6 -5 14 2 18 7 4 7 12 0 25 -9 17 -8 19
7 13 14 -5 16 -4 7 8 -6 8 -10 39 -9 69 0 30 -3 63 -7 72 -7 14 -5 16 9 11 14
-5 16 -4 7 8 -6 8 -10 48 -9 89 1 41 -3 80 -7 87 -5 6 -5 14 2 18 7 4 7 12 0
25 -9 17 -8 19 7 13 14 -5 16 -4 7 8 -6 8 -10 48 -9 89 1 41 -3 80 -7 87 -5 6
-5 14 2 18 7 4 7 12 0 25 -9 16 -8 18 6 13 13 -5 15 -3 8 8 -5 8 -9 200 -9
434 0 231 -4 426 -8 432 -6 9 -3 11 7 7 11 -4 14 -15 11 -31 -2 -14 -1 -23 2
-19 8 8 33 -13 33 -27 0 -7 -4 -7 -12 1 -7 7 -17 12 -23 12 -5 0 -3 -5 5 -10
8 -5 10 -10 5 -10 -6 0 -11 -9 -12 -20 -1 -11 2 -18 7 -15 5 3 7 -4 5 -15 -2
-12 2 -23 10 -27 8 -3 12 -9 9 -15 -3 -5 -13 -4 -22 4 -15 11 -15 11 -4 -4 10
-13 10 -17 0 -22 -7 -3 -3 -3 9 0 18 4 22 2 17 -10 -3 -8 -11 -14 -17 -13 -11
2 -18 -60 -8 -78 11 -19 9 -35 -2 -28 -8 4 -7 1 1 -9 10 -13 10 -17 0 -22 -7
-3 -3 -3 9 0 18 4 22 2 17 -10 -3 -8 -11 -14 -17 -13 -11 2 -18 -60 -8 -78 11
-19 9 -35 -2 -28 -8 4 -7 1 1 -9 10 -13 10 -17 0 -22 -7 -3 -3 -3 9 0 18 4 22
2 17 -10 -3 -8 -11 -14 -17 -13 -11 2 -18 -60 -8 -78 11 -19 9 -35 -2 -28 -8
4 -7 1 1 -9 10 -13 10 -17 0 -22 -7 -3 -3 -3 9 0 18 4 22 2 17 -10 -3 -8 -11
-14 -17 -13 -12 2 -17 -72 -5 -79 5 -3 6 -9 4 -13 -7 -11 38 -8 46 3 4 6 0 19
-9 28 -17 19 -4 25 14 7 8 -8 13 -8 18 0 3 6 1 10 -6 9 -6 -2 -14 3 -16 10 -3
6 0 12 6 12 6 0 11 5 11 11 0 8 -5 8 -15 -1 -12 -10 -16 -9 -21 5 -4 9 -1 22
6 28 10 10 12 8 6 -8 -6 -19 -5 -19 8 -2 14 18 15 18 25 0 6 -10 11 -13 11 -7
0 16 -22 32 -41 29 -8 -2 -21 6 -28 18 -11 17 -11 19 5 13 25 -10 36 15 17 36
-17 19 -4 25 14 7 8 -8 13 -8 18 0 3 6 1 10 -6 9 -6 -2 -14 3 -16 10 -3 6 0
12 6 12 6 0 11 5 11 11 0 8 -5 8 -15 -1 -12 -10 -16 -9 -21 5 -4 9 -1 22 6 28
10 10 12 8 6 -8 -6 -19 -5 -19 8 -2 14 18 15 18 25 0 6 -10 11 -13 11 -7 0 16
-22 32 -41 29 -8 -2 -21 6 -28 18 -11 17 -11 19 5 13 25 -10 36 15 17 36 -17
19 -4 25 14 7 8 -8 13 -8 18 0 3 6 1 10 -6 9 -6 -2 -14 3 -16 10 -3 6 0 12 6
12 6 0 11 5 11 11 0 8 -5 8 -15 -1 -12 -10 -16 -9 -21 5 -4 9 -1 22 6 28 10
10 12 8 6 -8 -6 -19 -5 -19 8 -2 14 18 15 18 25 0 6 -10 11 -13 11 -7 0 16
-22 32 -41 29 -8 -2 -21 6 -28 18 -11 17 -11 19 5 13 25 -10 36 15 17 36 -17
19 -4 25 14 7 8 -8 13 -8 18 0 3 6 1 10 -6 9 -6 -2 -14 3 -16 10 -3 6 0 12 6
12 6 0 11 5 11 11 0 8 -5 8 -15 -1 -12 -10 -16 -9 -21 5 -4 9 -1 22 6 28 10
10 12 8 6 -8 -6 -19 -5 -19 8 -2 14 18 15 18 25 0 6 -10 11 -13 11 -7 0 16
-22 32 -41 29 -11 -2 -17 5 -16 21 0 29 5 30 23 7 13 -16 13 -16 8 -1 -3 9
-17 24 -30 33 -13 8 -24 23 -24 31 0 12 4 11 18 -6 10 -13 23 -20 29 -17 14 9
9 52 -7 52 -7 0 -15 6 -18 14 -3 8 0 11 7 7 6 -4 11 -2 11 4 0 7 -8 9 -19 5
-15 -4 -18 0 -17 24 1 16 5 33 9 37 7 7 11 -9 8 -33 -1 -7 4 -13 10 -13 7 0
10 3 6 6 -3 4 1 13 10 22 14 14 14 17 -3 29 -15 11 -20 10 -34 -2 -9 -8 -20
-12 -25 -8 -4 5 -5 2 0 -6 5 -8 4 -12 -2 -8 -5 3 -9 41 -8 84 1 43 -3 83 -7
90 -5 6 -5 14 2 18 7 4 7 12 0 25 -9 17 -8 19 7 13 14 -5 16 -4 7 8 -6 8 -10
48 -9 89 1 41 -3 80 -7 87 -5 6 -5 14 2 18 7 4 7 12 0 25 -9 17 -8 19 7 13 14
-5 16 -4 7 8 -6 8 -10 48 -9 89 1 41 -3 80 -7 87 -5 6 -5 14 2 18 7 4 7 12 0
25 -9 17 -8 19 7 13 14 -5 16 -4 7 8 -6 8 -10 48 -10 89 1 41 -3 78 -9 82 -6
5 -5 8 3 8 7 0 10 5 7 10 -10 16 11 12 25 -5 7 -8 21 -15 32 -15 12 0 17 -4
12 -12 -4 -7 -3 -8 5 -4 16 10 4 26 -20 26 -13 0 -18 4 -13 12 4 6 3 9 -2 5
-13 -7 -46 18 -43 35 1 7 1 25 0 41 l-1 27 -623 0 -624 0 -223 -802 c-325
-1172 -390 -1401 -397 -1418 -10 -24 -14 -44 -14 -64 0 -17 -1 -17 -20 0 -20
18 -31 14 -35 -11 -2 -12 2 -12 17 -5 19 11 25 2 19 -25 -1 -5 -3 -15 -3 -22
0 -7 -5 -10 -10 -6 -5 3 -6 -4 -2 -17 4 -14 3 -20 -3 -16 -5 3 -12 18 -15 33
-4 25 -13 59 -21 88 -2 6 -6 18 -10 27 -4 9 -5 21 -2 27 3 5 3 11 -1 14 -5 2
-3 2 4 1 7 -2 15 2 19 8 4 7 3 8 -4 4 -17 -10 -15 10 3 28 17 16 19 26 7 26
-5 0 -14 -12 -21 -26 -11 -24 -24 -26 -27 -3 -1 5 -3 11 -4 14 -1 3 -3 8 -4
13 -1 4 -5 13 -10 21 -6 10 -5 12 2 7 7 -4 12 -2 12 3 0 6 -5 11 -12 11 -6 0
-8 3 -5 6 3 4 2 15 -3 25 -7 12 -6 20 2 25 7 5 8 3 2 -7 -4 -8 6 -3 23 11 36
28 40 37 18 37 -8 0 -12 -4 -10 -8 3 -3 -3 -13 -12 -20 -14 -12 -15 -11 -9 7
4 14 -1 30 -13 46 -11 14 -17 28 -14 32 4 3 15 -6 25 -21 10 -16 18 -23 18
-17 0 7 -8 21 -17 33 -13 15 -22 18 -33 11 -11 -7 -12 -12 -3 -21 6 -6 9 -19
6 -28 -4 -12 -3 -13 5 -3 7 11 11 10 16 -4 3 -9 4 -19 1 -22 -3 -3 -5 0 -5 6
0 7 -5 11 -11 10 -20 -5 -31 54 -14 72 15 17 11 30 -9 30 -6 0 -5 -4 2 -9 11
-6 10 -10 -4 -15 -10 -4 -15 -4 -11 0 4 4 1 14 -6 22 -8 11 -8 14 0 9 6 -4 13
-1 16 5 2 8 15 1 33 -19 16 -18 32 -33 36 -33 5 0 -1 9 -12 20 -11 11 -20 23
-20 28 0 4 -11 12 -25 19 -14 6 -23 7 -19 2 3 -5 0 -9 -5 -9 -6 0 -11 9 -11
19 0 11 -4 22 -10 26 -5 3 -7 12 -4 20 4 8 10 13 15 10 4 -3 6 -12 3 -19 -3
-8 0 -17 7 -22 9 -5 10 -2 6 9 -4 10 1 21 11 27 16 11 16 11 0 6 -22 -7 -33
10 -12 18 14 5 14 8 0 27 -8 12 -12 29 -9 38 4 13 3 13 -5 2 -6 -8 -7 -21 -4
-30 5 -14 4 -14 -13 -1 -18 15 -18 14 -1 -11 14 -22 14 -28 3 -32 -8 -3 -14 0
-14 6 -1 24 -14 81 -20 91 -6 10 -10 26 -15 64 -1 6 -4 12 -8 12 -4 0 -7 7 -7
16 0 15 2 14 13 -1 8 -10 11 -22 7 -28 -3 -6 -1 -7 5 -3 13 8 4 32 -26 66 -16
19 -21 35 -25 77 -1 13 -6 23 -10 23 -5 0 -6 4 -3 8 3 5 -1 20 -9 35 -7 14
-11 27 -9 30 2 2 -2 23 -10 45 -9 23 -13 42 -9 42 3 0 1 6 -4 13 -11 13 -26
63 -27 87 0 8 -5 18 -11 22 -6 5 -4 8 5 8 12 0 12 2 2 9 -7 4 -14 14 -15 22
-2 8 -6 19 -9 25 -4 5 -5 19 -4 30 2 10 -1 22 -6 25 -5 3 -11 18 -14 34 -3 16
-7 32 -10 36 -2 4 0 10 6 14 6 4 7 11 4 17 -4 6 -1 8 7 6 8 -3 13 -11 11 -17
-1 -6 2 -11 8 -11 13 0 13 13 -1 27 -8 8 -8 17 1 32 9 17 8 22 -5 27 -8 3 -12
10 -9 15 3 5 0 8 -7 7 -6 -2 -14 3 -17 11 -2 8 0 11 6 7 15 -9 3 31 -14 45
-20 16 -17 30 4 22 9 -4 2 7 -15 24 -34 32 -47 59 -15 30 10 -10 23 -17 28
-17 5 0 1 5 -9 11 -9 6 -15 14 -13 18 3 4 -4 8 -16 8 -13 1 -18 -3 -14 -13 3
-8 2 -14 -3 -14 -19 0 -18 40 2 57 19 17 20 17 14 1 -4 -10 -2 -18 3 -18 16 0
11 37 -5 44 -18 7 -15 47 5 64 13 10 12 11 -4 5 -14 -5 -17 -3 -11 6 6 10 3
11 -12 2 -11 -6 -23 -8 -26 -4 -4 3 -4 -4 -2 -16 2 -13 0 -19 -6 -15 -6 3 -8
8 -5 11 3 3 1 15 -5 26 -7 12 -7 17 -1 13 13 -8 23 19 11 31 -5 5 -3 18 7 31
15 22 17 22 31 5 13 -17 13 -16 3 5 -12 24 -30 30 -30 10 0 -9 -4 -8 -10 2
-13 21 -12 30 3 26 6 -1 9 -1 4 1 -4 3 -4 10 0 16 4 7 -1 6 -10 -2 -20 -16
-23 -1 -4 18 10 10 9 11 -6 5 -13 -5 -16 -2 -11 10 3 9 1 16 -6 16 -6 0 -8 5
-5 10 4 6 10 8 14 6 6 -4 7 20 2 43 -1 2 -8 -2 -16 -9 -13 -11 -15 -9 -13 11
3 20 -1 24 -19 22 -13 -2 -23 2 -23 7 0 17 0 19 -14 52 -7 18 -11 39 -9 46 3
6 -1 12 -7 12 -7 0 -10 6 -7 14 3 7 1 18 -4 23 -6 6 -6 19 0 36 8 20 7 25 -3
21 -8 -3 -18 12 -28 43 l-15 48 -624 3 -624 2 -1 -1785z m1371 1444 c-4 -31
-4 -31 18 -13 l21 19 -16 -26 c-13 -20 -14 -29 -5 -38 8 -8 7 -11 -3 -11 -9 0
-11 -3 -5 -8 19 -14 43 -78 35 -93 -5 -8 -4 -19 3 -28 10 -11 9 -13 -3 -9 -8
3 -15 15 -14 27 0 11 -3 21 -7 21 -5 0 -6 7 -3 15 4 9 0 15 -7 15 -12 0 -12 2
-1 9 11 7 11 9 -1 14 -9 3 -14 16 -13 31 2 14 0 26 -4 26 -4 0 -7 7 -8 15 -1
8 -3 22 -4 30 -1 8 -6 15 -12 15 -12 0 14 20 26 20 4 0 5 -14 3 -31z m89 -278
c-3 -16 0 -32 6 -36 7 -4 5 -11 -4 -21 -19 -18 -26 -18 -26 2 0 8 5 12 10 9 6
-3 10 -2 10 3 0 6 -7 13 -16 16 -9 4 -12 11 -7 18 4 7 8 16 9 21 3 15 4 17 13
17 5 0 7 -13 5 -29z m35 -144 c6 -8 8 -16 5 -20 -3 -3 2 -17 12 -32 12 -18 14
-29 6 -37 -11 -11 -32 -3 -32 14 0 6 7 5 18 -3 15 -12 16 -12 5 2 -7 9 -10 19
-6 23 4 4 -1 4 -12 0 -14 -6 -17 -4 -13 8 4 9 1 21 -5 27 -6 6 -7 11 -1 11 5
0 2 5 -6 10 -13 8 -13 10 1 10 9 0 22 -6 28 -13z m47 -126 c23 -18 23 -19 4
-41 -11 -12 -17 -27 -14 -31 3 -5 0 -9 -6 -9 -7 0 -10 6 -7 13 3 8 1 20 -3 28
-5 7 -5 18 1 25 7 8 6 15 -2 20 -8 5 -9 3 -4 -6 5 -9 4 -11 -3 -6 -15 9 -15
26 -1 26 6 0 22 -8 35 -19z m2384 -116 c0 -12 -19 -12 -23 0 -4 9 -1 12 9 8 7
-3 14 -7 14 -8z m-4 -115 c0 -22 -11 -26 -22 -9 -5 9 5 22 21 29 1 0 1 -9 1
-20z m-31 -39 c3 -5 2 -12 -3 -15 -5 -3 -9 1 -9 9 0 17 3 19 12 6z m3 -125
c-15 -11 -15 -13 3 -24 24 -15 15 -37 -9 -23 -10 6 -17 23 -17 44 -1 33 0 35
19 25 18 -10 18 -12 4 -22z m-3018 -128 c0 -5 -4 -7 -9 -4 -17 11 -18 -19 -2
-44 10 -14 11 -21 4 -17 -7 5 -13 4 -13 -2 0 -6 -4 -11 -9 -11 -5 0 -7 17 -4
38 2 20 5 45 6 54 1 13 5 14 14 6 7 -6 13 -15 13 -20z m2080 10 c0 -9 4 -8 10
2 5 8 10 10 10 4 0 -11 -29 -41 -31 -33 -6 31 -6 39 2 39 5 0 9 -6 9 -12z
m938 -42 c-15 -11 -15 -13 3 -24 24 -15 15 -37 -9 -23 -10 6 -17 23 -17 44 -1
33 0 35 19 25 18 -10 18 -12 4 -22z m-902 -42 c-3 -9 -6 -21 -6 -27 0 -7 -5
-4 -11 6 -10 17 -12 17 -28 3 -15 -14 -17 -13 -17 4 0 10 4 17 7 14 4 -2 10
-1 13 4 2 4 14 8 26 9 16 1 20 -2 16 -13z m-70 -83 c-12 -19 -22 -12 -22 14 0
22 2 23 14 11 8 -8 11 -19 8 -25z m972 -35 c-15 -11 -15 -13 3 -24 24 -15 15
-37 -9 -23 -10 6 -17 23 -17 44 -1 33 0 35 19 25 18 -10 18 -12 4 -22z m-3018
10 c0 -3 -4 -8 -10 -11 -5 -3 -10 -1 -10 4 0 6 5 11 10 11 6 0 10 -2 10 -4z
m2031 -9 c-6 -8 -9 -16 -6 -19 3 -3 -2 -11 -11 -19 -14 -11 -15 -10 -12 7 1
10 10 24 18 31 20 16 25 16 11 0z m-29 -82 c0 -5 -5 -11 -10 -13 -5 -1 -9 4
-9 13 0 9 4 14 9 13 5 -2 10 -8 10 -13z m2 -42 c4 -10 -1 -24 -15 -37 -21 -20
-21 -20 -11 -1 5 11 8 28 7 38 -4 22 11 22 19 0z m1014 -37 c-15 -11 -15 -13
3 -24 24 -15 15 -37 -9 -23 -10 6 -17 23 -17 44 -1 33 0 35 19 25 18 -10 18
-12 4 -22z m-2103 4 c3 -5 1 -10 -4 -10 -6 0 -11 5 -11 10 0 6 2 10 4 10 3 0
8 -4 11 -10z m1089 -66 c4 -10 1 -14 -6 -12 -15 5 -23 28 -10 28 5 0 13 -7 16
-16z m-40 -9 c-4 -8 -11 -12 -16 -9 -6 4 -5 10 3 15 19 12 19 11 13 -6z m-4
-68 c0 -2 -12 -14 -26 -28 l-27 -24 18 28 c14 22 35 36 35 24z m-1967 -70 c4
3 7 2 8 -3 0 -5 2 -24 4 -42 3 -23 -2 -35 -15 -42 -27 -14 -26 -15 -26 44 1
38 4 52 12 45 6 -5 14 -6 17 -2z m1947 -22 c0 -12 -19 -12 -23 0 -4 9 -1 12 9
8 7 -3 14 -7 14 -8z m-980 -25 c0 -5 -4 -10 -10 -10 -5 0 -10 5 -10 10 0 6 5
10 10 10 6 0 10 -4 10 -10z m959 -39 c18 -16 19 -20 7 -30 -10 -8 -16 -9 -21
-1 -3 5 -1 10 6 10 7 0 5 8 -6 20 -23 25 -15 26 14 1z m-1928 -25 c-9 -10 -8
-15 2 -19 17 -6 16 -73 0 -70 -6 1 -13 -4 -16 -11 -4 -10 1 -12 16 -9 18 5 20
3 10 -7 -9 -10 -10 -17 -2 -27 8 -9 8 -17 0 -27 -9 -10 -9 -16 -1 -21 8 -5 8
-11 -1 -21 -6 -7 -16 -11 -22 -7 -6 3 -7 1 -3 -5 4 -6 14 -8 24 -5 9 3 14 3
10 -2 -4 -4 0 -13 9 -20 14 -11 15 -16 4 -43 -19 -45 -35 -56 -52 -35 -9 11
-10 14 -1 9 6 -4 12 -2 12 3 0 6 -4 11 -8 11 -15 0 -8 114 8 128 8 8 10 11 3
8 -6 -4 -15 -1 -19 5 -4 7 -3 9 3 6 6 -4 13 0 16 8 4 8 1 12 -6 9 -9 -3 -13
12 -13 56 0 33 4 60 9 60 5 0 3 8 -4 17 -10 11 -10 14 -1 9 6 -4 12 -2 12 3 0
6 5 11 11 11 8 0 8 -4 0 -14z m1841 -124 c-10 -3 -10 -7 -1 -18 17 -21 18 -77
2 -96 -8 -9 -12 -22 -8 -27 3 -6 0 -14 -8 -17 -8 -3 -13 -15 -13 -27 3 -26
-22 -59 -37 -50 -6 3 -7 1 -3 -5 4 -6 14 -8 24 -5 15 6 16 5 2 -12 -8 -10 -15
-21 -15 -24 0 -3 -3 -5 -7 -3 -12 3 -9 -16 3 -23 6 -4 8 -14 5 -24 -5 -14 -4
-14 7 1 8 10 17 15 20 12 3 -3 -4 -15 -15 -26 -11 -11 -17 -26 -14 -34 3 -8 9
-20 12 -28 6 -17 -24 -49 -38 -40 -6 4 -1 12 12 19 15 8 19 15 11 19 -6 4 -8
12 -5 18 4 6 2 8 -4 4 -6 -3 -13 -2 -16 3 -3 5 1 12 10 15 8 3 12 11 9 17 -4
6 -13 8 -21 5 -17 -7 -29 11 -16 27 5 7 8 20 7 30 -2 10 3 21 11 24 8 3 14 9
14 15 0 5 -6 6 -12 2 -10 -6 -10 -5 -1 8 7 8 9 19 5 23 -4 5 -1 5 5 1 7 -4 19
-3 27 1 12 7 11 10 -2 23 -14 13 -15 12 -9 -3 4 -12 3 -16 -4 -12 -6 4 -7 14
-4 24 4 9 9 30 12 46 2 17 8 34 13 39 5 5 6 15 3 22 -3 8 -1 14 4 14 10 0 13
16 13 57 0 17 4 21 17 16 11 -5 13 -8 5 -11z m-1837 -238 c-10 -8 -22 -14 -25
-14 -4 0 -7 6 -7 14 0 8 11 14 26 14 23 0 24 -1 6 -14z m11 -25 c3 -6 1 -16
-5 -22 -9 -9 -10 -7 -5 8 9 24 1 18 -14 -12 -11 -19 -9 -21 11 -16 18 5 20 3
10 -7 -9 -10 -10 -17 -2 -27 8 -9 8 -17 0 -27 -9 -10 -9 -16 -1 -21 8 -5 7
-11 -2 -22 -16 -20 -19 -45 -6 -60 6 -7 7 -13 3 -13 -4 0 -3 -6 2 -12 13 -18
10 -114 -4 -111 -6 1 -13 -4 -16 -11 -4 -10 1 -12 16 -9 18 5 20 3 10 -7 -9
-10 -10 -17 -2 -27 8 -9 8 -17 0 -27 -9 -10 -9 -16 -1 -21 8 -5 8 -11 -1 -21
-6 -7 -16 -11 -22 -7 -6 3 -7 1 -3 -5 4 -6 13 -9 21 -5 8 3 15 0 15 -6 0 -10
-14 -15 -33 -12 -5 1 -6 -3 -2 -9 3 -6 10 -8 15 -5 5 3 14 -4 20 -15 15 -28
-14 -80 -33 -61 -18 18 -16 143 3 159 12 10 13 12 0 10 -11 -2 -14 12 -15 69
0 48 3 74 12 77 12 5 10 -24 -3 -46 -4 -6 -3 -8 4 -4 5 3 12 0 15 -6 2 -7 3 5
2 27 -1 22 -6 40 -12 40 -6 0 -15 4 -20 9 -4 5 -3 6 3 3 7 -4 14 0 17 8 4 8 1
12 -7 9 -19 -7 -16 107 4 124 8 8 10 11 3 8 -6 -4 -15 -1 -19 5 -4 7 -3 9 3 6
6 -4 13 0 16 8 4 9 1 12 -8 9 -11 -5 -13 2 -11 29 5 52 25 74 42 46z m1738
-103 c-15 -11 -15 -14 2 -30 15 -16 16 -19 3 -26 -10 -6 -15 -23 -14 -52 2
-46 -10 -82 -24 -73 -5 3 -11 -2 -15 -10 -3 -8 -1 -17 4 -20 6 -4 3 -16 -5
-29 -9 -13 -15 -28 -14 -32 4 -22 -2 -44 -11 -44 -12 0 -9 22 5 32 6 5 5 8 -4
8 -11 0 -11 3 -1 14 9 11 9 19 0 33 -9 16 -10 15 -4 -6 3 -14 2 -21 -3 -18 -6
4 -9 -10 -8 -33 1 -24 -2 -37 -8 -33 -6 3 -7 1 -3 -5 5 -8 1 -10 -9 -5 -9 3
-13 9 -8 12 4 3 9 11 10 18 1 6 5 26 8 44 7 39 14 51 25 44 4 -3 10 2 13 10 4
9 1 12 -9 8 -7 -3 -14 0 -14 7 0 6 5 8 10 5 7 -4 9 3 6 18 -3 17 1 28 12 32
14 5 14 7 2 15 -11 7 -12 12 -3 21 6 6 9 18 6 25 -3 8 0 14 7 14 6 0 9 4 5 9
-3 5 -1 12 4 16 5 3 8 13 6 23 -2 12 4 17 22 18 21 2 22 0 7 -10z m-1734 -65
c0 -6 -4 -12 -8 -15 -5 -3 -9 1 -9 9 0 8 4 15 9 15 4 0 8 -4 8 -9z m1695 -241
c3 -5 -9 -17 -27 -26 l-33 -17 25 26 c30 30 28 29 35 17z m-69 -52 c-6 -27
-13 -58 -18 -77 -1 -7 5 -15 15 -16 13 -3 15 0 8 9 -9 11 -8 53 2 63 2 2 10
-3 17 -12 10 -12 9 -16 -4 -21 -16 -6 -16 -8 0 -25 10 -11 12 -19 6 -19 -21 0
-27 -3 -39 -19 -7 -11 -8 -20 -2 -28 7 -8 4 -15 -9 -22 -12 -6 -19 -19 -17
-28 2 -10 4 -18 5 -18 8 0 5 -84 -4 -100 -5 -11 -9 -24 -8 -28 1 -5 -2 -6 -8
-2 -6 3 -8 10 -5 15 3 4 -2 11 -11 14 -8 3 -12 2 -9 -3 3 -5 1 -12 -5 -16 -6
-4 -7 -12 -3 -18 14 -22 13 -45 -2 -51 -8 -3 -12 -12 -9 -20 3 -8 1 -17 -5
-21 -8 -4 -8 -12 -1 -25 12 -23 4 -47 -22 -61 -19 -10 -19 -11 -2 -30 10 -11
24 -17 31 -15 10 4 10 1 1 -14 -7 -10 -16 -16 -20 -14 -5 3 -6 9 -3 14 3 4 -2
10 -10 14 -8 3 -14 2 -12 -2 1 -4 -2 -8 -8 -9 -5 -1 -9 5 -7 14 2 8 -1 12 -7
9 -12 -8 -6 35 7 43 4 3 7 13 7 21 -1 8 2 20 6 25 8 11 9 16 9 40 0 8 5 15 11
15 6 0 8 -7 4 -17 -5 -14 -3 -15 6 -6 6 6 8 17 3 25 -15 24 -14 49 2 55 12 4
13 8 3 14 -10 6 -10 10 0 23 7 8 9 21 5 27 -4 8 -3 9 4 5 21 -13 51 -15 58 -4
4 6 2 8 -4 4 -6 -3 -13 -2 -17 4 -3 5 -1 10 5 10 6 0 8 5 5 10 -3 6 0 10 7 11
10 0 11 2 0 6 -9 3 -10 9 -3 17 8 9 7 13 -4 13 -8 0 -11 -5 -8 -10 4 -6 1 -7
-8 -2 -11 7 -12 6 -2 -6 7 -9 8 -20 3 -29 -5 -8 -6 -19 -3 -25 3 -5 -2 -2 -12
7 -14 13 -16 20 -7 31 7 8 9 17 4 21 -4 4 2 12 12 18 14 8 15 12 6 18 -8 5 -9
13 -4 21 9 14 14 34 16 57 1 6 5 12 9 12 4 0 6 9 4 20 -2 12 2 23 11 27 12 4
12 8 2 21 -11 13 -11 14 0 8 9 -5 13 -3 11 5 -3 28 1 49 11 49 6 0 8 -10 6
-22z m43 -4 c-13 -7 -28 -10 -33 -7 -5 3 2 12 15 19 13 7 28 10 33 7 5 -3 -2
-12 -15 -19z m-1676 -187 c-11 -17 -11 -29 0 -51 7 -14 6 -16 -4 -11 -7 5 -17
1 -25 -9 -11 -16 -12 -15 -10 11 4 41 24 85 36 78 6 -4 7 -12 3 -18z m1633
-33 c-3 -9 -6 -18 -6 -20 0 -3 -4 -3 -10 1 -11 7 -2 35 12 35 6 0 7 -7 4 -16z
m1365 -421 c13 -16 12 -17 -3 -4 -17 13 -22 21 -14 21 2 0 10 -8 17 -17z"/>
<path d="M2110 3371 c0 -7 -5 -9 -12 -5 -7 5 -8 3 -3 -5 5 -9 10 -10 18 -2 6
6 8 14 4 18 -4 3 -7 1 -7 -6z"/>
<path d="M1427 2289 c7 -7 15 -10 18 -7 3 3 -2 9 -12 12 -14 6 -15 5 -6 -5z"/>
<path d="M1429 2263 c0 -5 -2 -16 -4 -25 -2 -12 2 -15 13 -10 11 4 12 7 4 10
-10 3 -10 7 -1 18 8 10 8 14 0 14 -6 0 -11 -3 -12 -7z"/>
<path d="M1429 2168 c-7 -24 -4 -40 9 -50 15 -12 16 -11 3 5 -11 14 -11 17 0
17 12 0 12 2 0 9 -11 7 -11 9 0 14 10 4 10 6 2 6 -7 1 -13 0 -14 -1z"/>
<path d="M1426 2001 c-4 -5 -2 -12 3 -15 5 -4 12 -2 15 3 4 5 2 12 -3 15 -5 4
-12 2 -15 -3z"/>
<path d="M1429 1940 c-5 -34 -2 -44 10 -48 10 -3 12 0 8 11 -3 9 -2 19 3 22 6
4 10 1 10 -6 0 -7 3 -9 6 -6 8 8 -14 37 -27 37 -5 0 -10 -4 -10 -10z"/>
<path d="M3269 2043 c-2 -15 -5 -31 -9 -38 -1 -3 -4 -9 -5 -15 -1 -5 -4 -13
-5 -17 -2 -5 -4 -12 -5 -18 -2 -5 -4 -12 -5 -15 -7 -20 -7 -41 2 -47 6 -3 8
-1 4 5 -3 6 -2 13 4 17 6 4 8 10 6 14 -3 4 4 18 16 30 15 16 17 26 9 34 -6 6
-7 15 -1 22 5 6 5 16 0 25 -7 11 -10 11 -11 3z m-1 -73 c-7 -11 -14 -17 -17
-15 -2 3 1 11 7 18 7 8 8 18 4 22 -4 5 -1 5 5 1 10 -5 10 -11 1 -26z"/>
<path d="M3200 1800 c-12 -7 -10 -9 7 -7 12 0 19 5 17 9 -6 10 -6 10 -24 -2z"/>
<path d="M3192 1776 c4 -5 3 -15 -4 -23 -6 -7 -8 -16 -4 -20 3 -3 6 -1 6 6 0
7 4 10 9 6 18 -10 21 13 3 26 -9 7 -14 9 -10 5z"/>
<path d="M1429 1688 c0 -2 -2 -11 -4 -21 -3 -15 -1 -16 11 -6 7 6 11 15 8 20
-5 9 -13 12 -15 7z"/>
<path d="M1423 1595 c0 -8 4 -12 9 -9 5 3 6 10 3 15 -9 13 -12 11 -12 -6z"/>
<path d="M1427 1433 c-11 -11 -8 -21 9 -27 13 -5 14 -4 6 7 -7 8 -9 17 -5 20
3 4 4 7 1 7 -2 0 -8 -3 -11 -7z"/>
<path d="M1426 1361 c-4 -5 -2 -12 3 -15 5 -4 12 -2 15 3 4 5 2 12 -3 15 -5 4
-12 2 -15 -3z"/>
<path d="M1423 1269 c-1 -12 5 -17 17 -16 13 1 16 5 10 13 -6 6 -8 13 -5 16 3
2 -1 5 -8 5 -7 0 -14 -8 -14 -18z"/>
<path d="M1426 1228 c3 -5 10 -6 15 -3 13 9 11 12 -6 12 -8 0 -12 -4 -9 -9z"/>
<path d="M3169 1677 c-1 -4 -2 -10 -3 -14 -1 -5 -5 -13 -9 -19 -4 -7 0 -15 9
-18 9 -4 13 -2 8 5 -4 6 0 15 7 20 11 6 11 11 1 21 -6 6 -13 9 -13 5z"/>
<path d="M3146 1611 c-4 -5 -2 -12 4 -16 6 -4 4 -14 -5 -29 -18 -27 -10 -39
17 -25 15 8 17 14 9 22 -7 7 -7 15 -1 22 7 9 6 16 -4 24 -9 8 -16 8 -20 2z
m18 -50 c3 -5 -1 -11 -9 -14 -9 -4 -12 -1 -8 9 6 16 10 17 17 5z"/>
<path d="M3055 1249 c4 -10 2 -20 -4 -23 -6 -4 -7 -14 -4 -23 5 -12 3 -14 -8
-8 -8 4 -11 5 -7 0 4 -4 3 -14 -3 -21 -7 -8 -6 -14 2 -20 7 -4 9 -3 5 4 -3 6
3 17 15 25 13 10 17 17 9 22 -8 5 -8 11 1 21 10 12 9 17 0 27 -10 9 -11 8 -6
-4z"/>
<path d="M3005 1089 c-4 -6 -5 -12 -2 -15 2 -3 7 2 10 11 7 17 1 20 -8 4z"/>
<path d="M2983 978 c-13 -22 -13 -42 0 -29 10 10 19 41 12 41 -2 0 -7 -6 -12
-12z"/>
<path d="M2954 893 c3 -6 2 -14 -3 -17 -5 -4 -8 -14 -6 -24 1 -9 -4 -24 -12
-34 -11 -12 -11 -18 -2 -24 7 -4 10 -3 5 4 -3 6 2 17 12 24 21 15 37 39 25 37
-20 -3 -27 2 -13 11 13 8 13 11 1 22 -9 8 -11 9 -7 1z"/>
<path d="M1429 1138 c-5 -18 -6 -38 -1 -34 7 8 12 36 6 36 -2 0 -4 -1 -5 -2z"/>
<path d="M1894 4195 c3 -23 12 -26 13 -5 1 11 -2 20 -7 20 -4 0 -7 -7 -6 -15z"/>
<path d="M1887 4159 c7 -7 15 -10 18 -7 3 3 -2 9 -12 12 -14 6 -15 5 -6 -5z"/>
<path d="M4434 4135 c0 -18 3 -22 13 -14 13 11 33 4 33 -11 0 -5 -6 -7 -14 -4
-8 3 -18 -1 -22 -8 -13 -20 -13 -68 0 -68 6 0 4 -5 -4 -10 -8 -5 -11 -10 -7
-10 5 0 21 9 37 20 15 11 31 16 35 12 5 -4 5 -1 0 7 -6 11 -3 13 13 9 12 -4
24 -3 27 1 5 9 -24 11 -45 4 -8 -4 -19 -7 -23 -7 -4 -1 -12 -8 -17 -16 -8 -13
-10 -13 -10 2 0 9 5 20 10 23 6 4 8 10 5 15 -3 4 2 10 10 14 22 8 18 22 -13
45 l-28 20 0 -24z m22 -50 c-1 -8 -5 -17 -8 -21 -5 -4 -4 16 1 34 3 9 9 -1 7
-13z"/>
<path d="M1884 4132 c13 -15 15 -22 6 -22 -10 0 -10 -3 0 -15 6 -8 9 -19 6
-24 -4 -5 -2 -12 4 -16 6 -4 8 -10 5 -15 -3 -4 2 -13 11 -20 12 -11 12 -15 2
-22 -8 -5 -2 -7 17 -6 33 2 55 14 55 31 0 6 -6 2 -14 -8 -13 -18 -15 -18 -41
-1 -15 10 -24 20 -21 23 3 3 12 0 20 -7 9 -6 21 -10 28 -7 9 4 9 6 -2 6 -8 1
-26 11 -40 22 -16 14 -19 19 -7 15 21 -7 23 10 2 18 -8 3 -15 11 -15 17 0 8 5
7 17 -2 14 -12 16 -12 8 0 -6 11 -4 13 7 8 17 -6 19 16 3 30 -4 4 -5 3 -2 -3
4 -7 0 -15 -9 -18 -12 -5 -15 -2 -10 9 3 10 2 13 -5 10 -5 -4 -18 -1 -27 6
-13 11 -12 8 2 -9z"/>
<path d="M4516 4118 c3 -5 10 -6 15 -3 13 9 11 12 -6 12 -8 0 -12 -4 -9 -9z"/>
<path d="M1948 4078 c10 -13 10 -17 0 -21 -7 -3 -3 -5 9 -3 12 1 25 5 28 9 3
4 2 5 -2 2 -3 -3 -16 3 -27 12 -17 15 -18 15 -8 1z"/>
<path d="M4485 4080 c-3 -6 1 -7 9 -4 18 7 21 14 7 14 -6 0 -13 -4 -16 -10z"/>
<path d="M4510 4019 c0 -5 5 -7 10 -4 6 3 10 8 10 11 0 2 -4 4 -10 4 -5 0 -10
-5 -10 -11z"/>
<path d="M4460 4005 c-7 -8 -17 -12 -24 -8 -6 4 -5 0 2 -9 9 -11 10 -18 2 -23
-6 -3 -8 -10 -5 -15 3 -5 0 -12 -6 -16 -9 -5 -7 -11 6 -21 11 -7 13 -13 6 -13
-9 0 -8 -5 3 -16 19 -18 21 -35 4 -31 -7 1 -12 -11 -13 -30 -1 -19 3 -33 9
-33 6 0 4 -5 -4 -10 -9 -6 -10 -10 -3 -10 6 0 15 5 19 11 3 6 16 8 28 5 19 -5
19 -4 4 8 -10 7 -17 15 -15 17 1 2 -4 -2 -10 -10 -11 -13 -13 -13 -13 1 0 17
15 31 38 34 8 2 17 6 20 9 4 4 -2 5 -12 3 -10 -1 -21 2 -23 9 -3 7 3 11 14 9
13 -3 19 2 21 17 1 16 -1 18 -8 8 -12 -20 -43 -24 -36 -4 3 8 6 18 6 21 0 4 5
0 10 -8 7 -11 9 -9 8 10 -1 14 -6 31 -11 37 -6 9 -4 15 6 19 24 9 28 33 8 44
-14 7 -22 6 -31 -5z m18 -30 c-23 -19 -24 -23 -9 -32 14 -9 14 -13 2 -24 -11
-11 -14 -11 -18 -1 -3 6 -10 9 -16 5 -7 -4 -6 1 2 10 7 9 10 17 6 17 -4 0 -2
7 5 15 7 8 9 15 5 15 -4 0 -2 6 5 14 6 8 19 12 27 9 14 -5 12 -10 -9 -28z m-8
-130 c0 -2 -6 -8 -13 -14 -10 -8 -14 -7 -14 2 0 8 6 14 14 14 7 0 13 -1 13 -2z"/>
<path d="M4533 3989 c-2 -23 3 -25 10 -4 4 8 3 16 -1 19 -4 3 -9 -4 -9 -15z"/>
<path d="M4511 3932 c-7 -13 -6 -19 2 -19 7 0 13 9 13 19 0 10 -1 18 -3 18 -1
0 -7 -8 -12 -18z"/>
<path d="M2015 3860 c3 -5 8 -10 11 -10 2 0 4 5 4 10 0 6 -5 10 -11 10 -5 0
-7 -4 -4 -10z"/>
<path d="M4526 3858 c3 -5 10 -6 15 -3 13 9 11 12 -6 12 -8 0 -12 -4 -9 -9z"/>
<path d="M2036 3827 c3 -10 9 -15 12 -12 3 3 0 11 -7 18 -10 9 -11 8 -5 -6z"/>
<path d="M4495 3821 c-3 -5 0 -13 6 -17 8 -5 9 -3 4 6 -6 10 -3 12 13 8 12 -4
24 -3 26 1 3 4 -6 8 -19 9 -13 1 -27 -2 -30 -7z"/>
<path d="M4510 3779 c0 -5 5 -7 10 -4 6 3 10 8 10 11 0 2 -4 4 -10 4 -5 0 -10
-5 -10 -11z"/>
<path d="M4460 3765 c-7 -8 -17 -12 -24 -8 -6 4 -5 0 2 -9 9 -11 10 -18 2 -23
-6 -3 -8 -10 -5 -15 3 -5 0 -12 -6 -16 -9 -5 -7 -11 6 -21 11 -7 13 -13 6 -13
-9 0 -8 -5 3 -16 19 -18 21 -35 4 -31 -7 1 -12 -11 -13 -30 -1 -19 3 -33 9
-33 6 0 4 -5 -4 -10 -19 -12 -5 -13 18 -1 9 5 25 12 36 15 17 6 17 8 2 30 -12
19 -13 25 -2 29 13 5 16 40 3 45 -15 5 -17 1 -8 -17 8 -15 7 -20 -5 -25 -12
-5 -15 -2 -10 9 3 9 2 13 -4 10 -15 -9 -12 7 5 31 8 12 12 31 10 43 -2 11 0
21 5 21 18 0 18 30 1 40 -14 7 -22 6 -31 -5z m28 -23 c-7 -8 -13 -26 -13 -40
0 -14 -6 -27 -12 -29 -7 -3 -13 0 -13 7 0 6 -5 8 -12 4 -9 -5 -9 -2 1 9 7 9
10 17 6 17 -4 0 -2 7 5 15 7 8 9 15 5 15 -4 0 -2 6 5 14 6 8 18 12 26 9 12 -4
12 -8 2 -21z m0 -160 c13 -20 13 -22 -2 -22 -11 0 -15 5 -11 13 4 6 -1 3 -9
-7 -12 -15 -16 -16 -17 -5 0 8 -2 21 -4 30 -4 24 25 17 43 -9z"/>
<path d="M2010 3760 c0 -16 35 -30 51 -19 12 8 12 10 -1 8 -29 -3 -41 1 -35
11 3 6 1 10 -4 10 -6 0 -11 -4 -11 -10z"/>
<path d="M4516 3742 c-3 -5 1 -9 9 -9 8 0 12 4 9 9 -3 4 -7 8 -9 8 -2 0 -6 -4
-9 -8z"/>
<path d="M2010 3720 c0 -5 5 -10 10 -10 6 0 10 5 10 10 0 6 -4 10 -10 10 -5 0
-10 -4 -10 -10z"/>
<path d="M4507 3689 c6 -22 20 -26 20 -4 0 8 -6 16 -13 19 -7 3 -10 -2 -7 -15z"/>
<path d="M2061 3644 c0 -11 3 -14 6 -6 3 7 2 16 -1 19 -3 4 -6 -2 -5 -13z"/>
<path d="M2099 3633 c-13 -16 -12 -17 4 -4 16 13 21 21 13 21 -2 0 -10 -8 -17
-17z"/>
<path d="M4527 3619 c7 -7 15 -10 18 -7 3 3 -2 9 -12 12 -14 6 -15 5 -6 -5z"/>
<path d="M2091 3594 c0 -11 3 -14 6 -6 3 7 2 16 -1 19 -3 4 -6 -2 -5 -13z"/>
<path d="M4510 3605 c0 -5 5 -17 10 -25 5 -8 10 -10 10 -5 0 6 -5 17 -10 25
-5 8 -10 11 -10 5z"/>
<path d="M2090 3560 c0 -5 5 -10 11 -10 5 0 7 5 4 10 -3 6 -8 10 -11 10 -2 0
-4 -4 -4 -10z"/>
<path d="M4459 3523 c-6 -7 -16 -10 -23 -6 -6 4 -5 0 2 -9 9 -11 10 -18 2 -23
-6 -3 -8 -10 -5 -15 3 -5 0 -12 -6 -16 -9 -5 -7 -11 6 -21 11 -7 13 -13 6 -13
-9 0 -8 -5 3 -16 19 -18 21 -35 4 -31 -7 1 -12 -11 -13 -30 -1 -19 3 -33 9
-33 6 0 4 -5 -4 -10 -9 -6 -10 -10 -3 -10 6 0 15 5 19 11 3 6 16 8 28 5 19 -5
19 -4 4 8 -10 7 -17 15 -15 17 1 2 -4 -2 -10 -10 -11 -13 -13 -13 -13 1 0 17
15 31 38 34 8 2 17 6 20 9 4 4 -2 5 -12 3 -10 -1 -21 2 -23 9 -3 7 3 11 14 9
13 -3 19 2 21 17 1 16 -1 18 -8 8 -12 -20 -43 -24 -36 -4 3 8 6 18 6 21 0 4 5
0 10 -8 7 -11 9 -9 8 10 -1 14 -6 31 -12 39 -9 11 -6 13 14 7 19 -6 21 -5 10
3 -8 6 -23 8 -32 5 -12 -3 -15 0 -13 13 2 10 4 20 4 23 1 3 5 0 9 -7 6 -9 11
-7 19 6 9 14 8 18 -3 18 -8 0 -19 -6 -25 -14z m21 -73 c0 -14 -23 -25 -28 -12
-2 7 -9 9 -15 5 -8 -5 -8 -2 0 9 7 8 9 18 5 23 -4 4 3 2 16 -4 12 -6 22 -16
22 -21z m-10 -85 c0 -2 -6 -8 -13 -14 -10 -8 -14 -7 -14 2 0 8 6 14 14 14 7 0
13 -1 13 -2z"/>
<path d="M2140 3526 c0 -2 8 -10 18 -17 15 -13 16 -12 3 4 -13 16 -21 21 -21
13z"/>
<path d="M4501 3516 c-15 -18 5 -34 22 -17 9 9 7 11 -8 6 -20 -7 -20 -6 -1 9
11 9 15 16 9 16 -6 0 -16 -6 -22 -14z"/>
<path d="M2136 3473 c-6 -14 -5 -15 5 -6 7 7 10 15 7 18 -3 3 -9 -2 -12 -12z"/>
<path d="M4511 3452 c-7 -13 -6 -19 2 -19 7 0 13 9 13 19 0 10 -1 18 -3 18 -1
0 -7 -8 -12 -18z"/>
<path d="M2136 3418 c3 -4 11 -5 19 -1 21 7 19 12 -4 10 -11 0 -18 -5 -15 -9z"/>
<path d="M4526 3378 c3 -5 10 -6 15 -3 13 9 11 12 -6 12 -8 0 -12 -4 -9 -9z"/>
<path d="M2157 3353 c-10 -9 -9 -23 1 -23 5 0 9 7 9 15 0 17 -1 18 -10 8z"/>
<path d="M4495 3341 c-3 -5 0 -13 6 -17 8 -5 9 -3 4 6 -6 10 -3 12 13 8 12 -4
24 -3 26 1 3 4 -6 8 -19 9 -13 1 -27 -2 -30 -7z"/>
<path d="M4510 3299 c0 -5 5 -7 10 -4 6 3 10 8 10 11 0 2 -4 4 -10 4 -5 0 -10
-5 -10 -11z"/>
<path d="M2117 3288 c6 -7 9 -21 8 -30 -2 -11 10 -25 30 -37 l33 -19 -3 24
c-1 14 -6 28 -10 32 -4 4 -4 -3 -1 -15 6 -18 4 -22 -8 -17 -18 7 -21 30 -6 39
6 3 10 10 10 16 0 5 -4 9 -10 9 -5 0 -9 -5 -7 -11 1 -6 -4 -14 -11 -16 -7 -3
-10 1 -6 10 3 8 -2 17 -12 21 -13 5 -14 3 -7 -6z"/>
<path d="M2210 3261 c0 -6 4 -13 10 -16 6 -3 7 1 4 9 -7 18 -14 21 -14 7z"/>
<path d="M4516 3262 c-3 -5 1 -9 9 -9 8 0 12 4 9 9 -3 4 -7 8 -9 8 -2 0 -6 -4
-9 -8z"/>
<path d="M4507 3209 c6 -22 20 -26 20 -4 0 8 -6 16 -13 19 -7 3 -10 -2 -7 -15z"/>
<path d="M2145 3192 c-4 -10 1 -21 11 -29 13 -9 14 -13 4 -13 -9 0 -8 -4 5
-13 10 -8 15 -18 12 -24 -3 -5 10 -17 28 -27 19 -11 33 -22 30 -26 -2 -4 3 -7
11 -7 10 0 6 9 -13 27 -15 14 -30 25 -33 24 -3 -1 -10 9 -17 22 -10 22 -9 24
10 20 12 -2 16 -1 8 2 -11 3 -9 9 10 24 l24 20 -27 -16 c-33 -19 -44 -21 -30
-3 8 9 6 16 -8 24 -15 10 -19 9 -25 -5z m25 -12 c0 -5 -4 -10 -10 -10 -5 0
-10 5 -10 10 0 6 5 10 10 10 6 0 10 -4 10 -10z"/>
<path d="M4527 3139 c7 -7 15 -10 18 -7 3 3 -2 9 -12 12 -14 6 -15 5 -6 -5z"/>
<path d="M4510 3125 c0 -5 5 -17 10 -25 5 -8 10 -10 10 -5 0 6 -5 17 -10 25
-5 8 -10 11 -10 5z"/>
<path d="M2250 3101 c0 -6 4 -13 10 -16 6 -3 7 1 4 9 -7 18 -14 21 -14 7z"/>
<path d="M1394 3089 c-3 -6 -1 -15 6 -19 10 -6 9 -9 -1 -12 -10 -3 -9 -6 3
-10 14 -6 17 7 8 32 -1 3 -2 8 -1 13 2 11 -7 9 -15 -4z"/>
<path d="M2180 3070 c-11 -7 -11 -10 -2 -10 7 0 11 -4 8 -8 -9 -15 11 -35 27
-26 14 8 14 11 -1 31 -13 17 -21 20 -32 13z m30 -30 c0 -5 -2 -10 -4 -10 -3 0
-8 5 -11 10 -3 6 -1 10 4 10 6 0 11 -4 11 -10z"/>
<path d="M3546 3072 c-3 -5 1 -15 8 -21 11 -10 14 -9 12 3 -3 21 -13 29 -20
18z"/>
<path d="M2227 3019 c-12 -7 -16 -17 -11 -31 4 -14 2 -18 -5 -14 -12 8 -4 -20
10 -40 5 -6 6 -14 2 -18 -4 -4 1 -4 12 0 19 7 19 7 2 -13 -9 -11 -14 -23 -10
-26 10 -10 33 -8 33 3 0 5 -8 7 -17 4 -13 -4 -11 0 6 15 13 12 18 21 12 21 -8
0 -9 5 -1 19 13 25 -4 38 -25 21 -20 -16 -19 0 1 28 8 12 12 22 7 22 -4 0 -1
5 7 10 20 13 0 12 -23 -1z m13 -13 c0 -3 -4 -8 -10 -11 -5 -3 -10 -1 -10 4 0
6 5 11 10 11 6 0 10 -2 10 -4z m14 -61 c-6 -16 -24 -21 -24 -7 0 11 11 22 21
22 5 0 6 -7 3 -15z"/>
<path d="M4533 2989 c-2 -23 3 -25 10 -4 4 8 3 16 -1 19 -4 3 -9 -4 -9 -15z"/>
<path d="M2286 2922 c-3 -5 1 -9 9 -9 8 0 12 4 9 9 -3 4 -7 8 -9 8 -2 0 -6 -4
-9 -8z"/>
<path d="M4500 2926 c0 -2 7 -7 16 -10 8 -3 12 -2 9 4 -6 10 -25 14 -25 6z"/>
<path d="M2270 2886 c0 -8 4 -17 9 -20 5 -4 7 3 4 14 -6 23 -13 26 -13 6z"/>
<path d="M2296 2887 c3 -10 9 -15 12 -12 3 3 0 11 -7 18 -10 9 -11 8 -5 -6z"/>
<path d="M2245 2851 c-3 -5 -1 -13 5 -16 6 -4 8 -15 5 -24 -3 -10 4 -29 15
-44 25 -31 26 -44 3 -26 -16 13 -17 12 -4 -3 7 -10 16 -16 20 -14 4 3 12 -8
19 -24 7 -15 20 -31 30 -35 12 -4 11 0 -6 18 -12 13 -22 30 -22 39 0 9 -7 21
-15 28 -8 7 -12 17 -9 22 4 6 10 4 16 -6 5 -9 13 -16 18 -16 6 0 2 9 -7 20
-13 14 -20 17 -30 8 -19 -15 -16 2 4 26 10 12 14 18 9 14 -13 -11 -36 11 -29
28 6 15 -12 20 -22 5z m35 -45 c0 -3 -4 -8 -10 -11 -5 -3 -10 -1 -10 4 0 6 5
11 10 11 6 0 10 -2 10 -4z"/>
<path d="M2280 2840 c0 -5 5 -10 11 -10 5 0 7 5 4 10 -3 6 -8 10 -11 10 -2 0
-4 -4 -4 -10z"/>
<path d="M4533 2829 c-2 -23 3 -25 10 -4 4 8 3 16 -1 19 -4 3 -9 -4 -9 -15z"/>
<path d="M3475 2809 c-4 -6 -5 -12 -2 -15 2 -3 7 2 10 11 7 17 1 20 -8 4z"/>
<path d="M2310 2800 c0 -5 5 -10 10 -10 6 0 10 5 10 10 0 6 -4 10 -10 10 -5 0
-10 -4 -10 -10z"/>
<path d="M1471 2771 c-7 -5 -12 -14 -10 -20 2 -6 10 -2 17 9 14 22 13 23 -7
11z"/>
<path d="M4500 2766 c0 -2 7 -7 16 -10 8 -3 12 -2 9 4 -6 10 -25 14 -25 6z"/>
<path d="M1470 2718 c0 -9 7 -19 16 -22 15 -6 15 -4 3 11 -7 10 -15 20 -16 22
-2 2 -3 -3 -3 -11z"/>
<path d="M2334 2718 c-3 -5 -1 -15 5 -21 9 -9 11 -8 6 5 -5 14 -2 16 15 13 13
-2 20 -1 16 2 -11 11 -36 12 -42 1z"/>
<path d="M2365 2680 c-3 -6 1 -7 9 -4 18 7 21 14 7 14 -6 0 -13 -4 -16 -10z"/>
<path d="M3536 2673 c-6 -14 -5 -15 5 -6 7 7 10 15 7 18 -3 3 -9 -2 -12 -12z"/>
<path d="M4533 2669 c-2 -23 3 -25 10 -4 4 8 3 16 -1 19 -4 3 -9 -4 -9 -15z"/>
<path d="M1468 2663 c6 -2 18 -2 25 0 6 3 1 5 -13 5 -14 0 -19 -2 -12 -5z"/>
<path d="M2356 2651 c-3 -4 1 -17 10 -27 14 -18 15 -18 5 2 -6 12 -7 24 -4 28
3 3 4 6 0 6 -3 0 -8 -4 -11 -9z"/>
<path d="M1463 2636 c1 -11 9 -21 17 -23 10 -3 11 -2 4 4 -6 4 -14 15 -17 23
-5 11 -6 9 -4 -4z"/>
<path d="M2300 2641 c0 -6 10 -17 22 -25 12 -9 19 -19 15 -22 -4 -4 -15 -1
-24 7 -17 13 -17 13 0 -7 9 -11 15 -24 12 -27 -3 -4 0 -3 6 2 18 15 20 64 4
57 -8 -3 -17 -1 -20 4 -3 5 3 11 12 13 14 4 13 5 -4 6 -13 0 -23 -3 -23 -8z"/>
<path d="M4500 2606 c0 -2 7 -7 16 -10 8 -3 12 -2 9 4 -6 10 -25 14 -25 6z"/>
<path d="M1470 2580 c-6 -11 -8 -20 -6 -20 3 0 10 9 16 20 6 11 8 20 6 20 -3
0 -10 -9 -16 -20z"/>
<path d="M1415 2581 c-3 -5 1 -15 8 -23 8 -7 13 -21 11 -31 -1 -9 3 -17 9 -17
7 0 5 -4 -3 -10 -23 -14 -21 -109 2 -121 10 -5 18 -16 18 -24 0 -8 9 -19 20
-25 16 -9 18 -8 14 5 -3 8 -10 12 -15 9 -5 -3 -9 1 -9 10 0 8 3 16 8 19 4 2 1
2 -7 0 -8 -2 -11 2 -7 13 3 8 1 25 -6 37 -7 12 -11 28 -10 35 2 6 -2 12 -8 12
-5 0 -10 5 -10 11 0 5 5 7 10 4 9 -6 14 8 11 29 -1 4 4 16 11 25 7 9 9 13 4 9
-10 -8 -47 23 -40 34 3 4 3 8 0 8 -3 0 -7 -4 -11 -9z m45 -183 c0 -4 -8 -8
-17 -8 -15 0 -16 2 -3 10 8 5 10 10 4 10 -6 0 -11 7 -11 16 0 14 2 14 14 -2 7
-10 13 -21 13 -26z"/>
<path d="M2390 2575 c5 -7 6 -16 2 -21 -4 -5 -3 -5 2 -1 15 12 15 34 0 34 -9
0 -11 -4 -4 -12z"/>
<path d="M1497 2570 c7 -8 20 -15 29 -16 9 -1 13 1 9 4 -4 4 -10 7 -13 7 -4 0
-14 4 -22 9 -12 7 -13 6 -3 -4z"/>
<path d="M2370 2556 c0 -8 4 -17 9 -20 5 -4 7 3 4 14 -6 23 -13 26 -13 6z"/>
<path d="M3397 2533 c-10 -9 -9 -23 1 -23 5 0 9 7 9 15 0 17 -1 18 -10 8z"/>
<path d="M3490 2530 c-9 -6 -10 -10 -3 -10 6 0 15 5 18 10 8 12 4 12 -15 0z"/>
<path d="M1470 2518 c0 -4 4 -8 9 -8 6 0 12 4 15 8 3 5 -1 9 -9 9 -8 0 -15 -4
-15 -9z"/>
<path d="M4533 2509 c-2 -23 3 -25 10 -4 4 8 3 16 -1 19 -4 3 -9 -4 -9 -15z"/>
<path d="M2390 2510 c0 -5 5 -10 11 -10 5 0 7 5 4 10 -3 6 -8 10 -11 10 -2 0
-4 -4 -4 -10z"/>
<path d="M1495 2500 c-3 -5 -1 -10 4 -10 6 0 11 5 11 10 0 6 -2 10 -4 10 -3 0
-8 -4 -11 -10z"/>
<path d="M3470 2500 c-13 -8 -12 -10 3 -10 9 0 17 5 17 10 0 12 -1 12 -20 0z"/>
<path d="M1469 2495 c0 -5 -2 -20 -3 -32 -1 -12 1 -28 6 -35 7 -10 8 -9 5 2
-2 8 -1 22 4 31 4 8 3 22 -2 30 -5 7 -9 10 -10 4z"/>
<path d="M3486 2462 c-3 -5 1 -9 9 -9 8 0 12 4 9 9 -3 4 -7 8 -9 8 -2 0 -6 -4
-9 -8z"/>
<path d="M2410 2450 c-9 -6 -10 -10 -3 -10 6 0 15 5 18 10 8 12 4 12 -15 0z"/>
<path d="M2380 2441 c0 -6 4 -13 10 -16 6 -3 7 1 4 9 -7 18 -14 21 -14 7z"/>
<path d="M2436 2434 c-3 -9 -11 -12 -18 -8 -7 4 -9 3 -5 -1 14 -16 33 -13 34
6 2 23 -3 24 -11 3z"/>
<path d="M4430 2439 c0 -5 6 -9 13 -9 8 0 7 -4 -3 -10 -8 -5 -10 -10 -5 -10
13 1 51 30 39 31 -5 0 -17 2 -26 4 -10 2 -18 -1 -18 -6z"/>
<path d="M4495 2440 c-3 -5 -2 -10 4 -10 5 0 13 5 16 10 3 6 2 10 -4 10 -5 0
-13 -4 -16 -10z"/>
<path d="M1513 2415 c0 -8 4 -12 9 -9 5 3 6 10 3 15 -9 13 -12 11 -12 -6z"/>
<path d="M3495 2420 c3 -5 8 -10 11 -10 2 0 4 5 4 10 0 6 -5 10 -11 10 -5 0
-7 -4 -4 -10z"/>
<path d="M4522 2418 c-7 -7 -12 -17 -12 -22 0 -6 5 -3 11 7 6 9 15 14 21 11 7
-4 8 -2 4 4 -9 15 -9 15 -24 0z"/>
<path d="M4460 2405 c-7 -8 -17 -12 -24 -8 -6 4 -5 0 2 -9 9 -11 10 -18 2 -23
-6 -3 -8 -10 -5 -15 3 -5 0 -12 -6 -16 -9 -5 -7 -11 6 -21 11 -7 13 -13 6 -13
-9 0 -8 -5 3 -16 19 -18 21 -35 4 -31 -7 1 -12 -11 -13 -30 -1 -19 3 -33 9
-33 6 0 4 -5 -4 -10 -8 -5 -10 -10 -5 -10 16 1 45 26 38 33 -3 4 -2 7 4 7 6 0
13 -7 17 -15 3 -9 0 -15 -8 -15 -7 0 -19 -7 -26 -15 -7 -8 -17 -12 -24 -8 -6
4 -5 0 2 -9 9 -11 10 -18 2 -23 -6 -3 -8 -10 -5 -15 3 -5 0 -12 -6 -16 -9 -5
-7 -11 6 -21 11 -7 13 -13 6 -13 -9 0 -8 -5 3 -16 19 -18 21 -35 4 -32 -7 2
-12 -10 -13 -29 -1 -19 3 -33 9 -33 6 0 4 -5 -4 -10 -9 -6 -10 -10 -3 -10 6 0
15 5 18 10 3 6 11 10 17 10 6 0 3 -9 -7 -20 -10 -11 -23 -17 -29 -13 -6 4 -5
0 2 -9 10 -12 10 -18 1 -23 -8 -6 -7 -10 2 -16 8 -5 10 -9 4 -9 -14 0 -15 -70
-1 -70 6 0 4 -5 -4 -10 -23 -15 -6 -12 25 4 17 9 22 16 13 19 -9 4 -8 6 3 6
25 1 31 29 9 41 -15 8 -21 6 -29 -7 -9 -16 -10 -16 -11 -2 0 26 24 41 40 26
12 -10 12 -9 1 6 -11 13 -17 15 -27 6 -12 -10 -13 -7 -10 12 3 13 5 26 5 29 1
3 5 0 9 -7 5 -8 12 -7 27 4 19 15 19 15 -5 8 -22 -7 -23 -6 -11 8 7 9 16 15
20 13 4 -3 8 5 8 16 2 19 1 19 -11 3 -9 -13 -15 -15 -20 -7 -4 7 -2 12 3 12 6
0 11 6 11 13 -1 6 -10 1 -20 -12 -15 -17 -20 -19 -20 -7 0 9 9 21 20 28 11 7
20 16 20 21 0 4 -5 5 -11 1 -7 -4 -10 -1 -7 7 3 8 14 13 24 11 15 -2 16 -1 4
7 -9 7 -19 6 -27 -1 -21 -17 -15 6 9 38 l22 29 -22 -19 c-12 -11 -25 -16 -29
-12 -5 4 -1 11 7 16 8 5 24 15 34 23 19 14 19 14 -2 35 -18 18 -19 21 -3 25
12 3 17 13 16 28 -3 27 -23 27 -42 2 -12 -16 -13 -16 -13 0 0 9 9 22 20 29 11
7 20 16 20 21 0 4 -4 5 -10 2 -5 -3 -10 -1 -10 4 0 6 5 11 10 11 6 0 10 5 10
11 0 8 -6 7 -17 -2 -15 -12 -16 -12 -10 4 4 10 7 21 7 23 0 3 5 2 10 -1 6 -3
10 -1 10 5 0 7 -8 9 -20 5 -25 -8 -26 3 -2 21 22 17 35 18 26 2 -4 -7 -3 -10
1 -5 17 15 12 48 -9 59 -20 11 -20 11 -1 19 15 6 16 8 4 8 -9 1 -22 -6 -29
-14z m26 -25 c20 0 10 -14 -29 -42 -21 -15 -27 -17 -18 -5 7 9 10 17 7 17 -4
0 -4 6 1 13 4 6 8 15 9 20 4 19 6 21 11 10 2 -7 11 -13 19 -13z m-16 -135 c0
-2 -6 -8 -13 -14 -10 -8 -14 -7 -14 2 0 8 6 14 14 14 7 0 13 -1 13 -2z m10
-100 c4 3 10 -1 13 -8 3 -7 -11 -23 -32 -37 -22 -14 -31 -17 -22 -7 7 10 10
17 7 17 -4 0 -4 6 1 13 4 6 8 15 9 20 4 19 6 21 11 9 2 -6 8 -10 13 -7z m-10
-140 c0 -2 -6 -8 -13 -14 -10 -8 -14 -7 -14 2 0 8 6 14 14 14 7 0 13 -1 13 -2z
m8 -189 c-13 -12 -25 -21 -27 -19 -8 6 -10 32 -3 32 20 -3 32 2 27 11 -3 6 1
7 10 4 13 -5 12 -10 -7 -28z"/>
<path d="M4460 2360 c-9 -6 -10 -10 -3 -10 6 0 15 5 18 10 8 12 4 12 -15 0z"/>
<path d="M4460 2120 c-9 -6 -10 -10 -3 -10 6 0 15 5 18 10 8 12 4 12 -15 0z"/>
<path d="M1480 2396 c0 -2 7 -7 16 -10 8 -3 12 -2 9 4 -6 10 -25 14 -25 6z"/>
<path d="M2434 2382 c4 -3 14 -7 22 -8 9 -1 13 0 10 4 -4 3 -14 7 -22 8 -9 1
-13 0 -10 -4z"/>
<path d="M3430 2371 c0 -6 5 -13 12 -17 6 -4 8 -3 4 4 -3 5 0 13 6 15 8 3 6 6
-4 6 -10 1 -18 -3 -18 -8z"/>
<path d="M1513 2318 c1 -7 -4 -12 -11 -10 -8 1 -11 -2 -7 -8 5 -8 11 -8 21 1
7 6 11 15 8 20 -8 13 -14 11 -11 -3z"/>
<path d="M4508 2312 c-3 -10 0 -19 6 -19 7 0 12 9 12 19 0 10 -3 18 -7 18 -4
0 -9 -8 -11 -18z"/>
<path d="M3339 2305 c-1 -3 -2 -8 -3 -12 -1 -5 -5 -14 -9 -20 -6 -9 -3 -11 7
-7 8 3 14 14 13 25 -1 18 -5 25 -8 14z"/>
<path d="M3446 2302 c-3 -5 1 -9 9 -9 8 0 12 4 9 9 -3 4 -7 8 -9 8 -2 0 -6 -4
-9 -8z"/>
<path d="M1487 2279 c7 -7 15 -10 18 -7 3 3 -2 9 -12 12 -14 6 -15 5 -6 -5z"/>
<path d="M4507 2249 c6 -22 20 -26 20 -4 0 8 -6 16 -13 19 -7 3 -10 -2 -7 -15z"/>
<path d="M2453 2245 c-3 -9 -3 -18 -1 -21 3 -3 8 4 11 16 6 23 -1 27 -10 5z"/>
<path d="M2426 2221 c-3 -4 0 -16 8 -26 11 -15 13 -16 13 -1 0 9 -4 16 -9 16
-5 0 -6 5 -3 10 3 6 4 10 1 10 -3 0 -7 -4 -10 -9z"/>
<path d="M2490 2220 c0 -5 5 -10 11 -10 5 0 7 5 4 10 -3 6 -8 10 -11 10 -2 0
-4 -4 -4 -10z"/>
<path d="M3413 2205 c-3 -9 -3 -18 -1 -21 3 -3 8 4 11 16 6 23 -1 27 -10 5z"/>
<path d="M2460 2195 c0 -8 2 -15 4 -15 2 0 6 7 10 15 3 8 1 15 -4 15 -6 0 -10
-7 -10 -15z"/>
<path d="M1513 2185 c0 -8 4 -12 9 -9 5 3 6 10 3 15 -9 13 -12 11 -12 -6z"/>
<path d="M3302 2178 c-1 -20 -10 -56 -17 -71 -4 -6 0 -3 9 7 8 10 13 23 10 27
-3 5 2 6 11 2 12 -4 13 -8 5 -13 -7 -4 -9 -13 -6 -19 4 -6 12 -9 17 -5 6 3 9
-2 7 -12 -2 -14 3 -19 20 -20 19 -1 19 -1 2 3 -11 2 -18 9 -14 14 3 5 11 7 17
3 7 -3 3 2 -7 10 -11 9 -21 26 -23 38 -4 28 -29 57 -31 36z"/>
<path d="M4527 2179 c7 -7 15 -10 18 -7 3 3 -2 9 -12 12 -14 6 -15 5 -6 -5z"/>
<path d="M2440 2160 c11 -7 11 -10 2 -10 -7 0 -10 -5 -6 -11 4 -8 9 -7 15 2
13 21 11 29 -8 29 -15 0 -16 -2 -3 -10z"/>
<path d="M3415 2161 c-3 -5 -2 -12 3 -15 5 -3 9 1 9 9 0 17 -3 19 -12 6z"/>
<path d="M4510 2165 c0 -5 5 -17 10 -25 5 -8 10 -10 10 -5 0 6 -5 17 -10 25
-5 8 -10 11 -10 5z"/>
<path d="M1486 2133 c-6 -14 -5 -15 5 -6 7 7 10 15 7 18 -3 3 -9 -2 -12 -12z"/>
<path d="M2490 2120 c-11 -7 -11 -10 -2 -10 8 0 10 -5 6 -12 -4 -7 -3 -9 1 -5
7 6 17 37 12 37 -1 0 -9 -5 -17 -10z"/>
<path d="M3370 2120 c0 -5 5 -10 10 -10 6 0 10 5 10 10 0 6 -4 10 -10 10 -5 0
-10 -4 -10 -10z"/>
<path d="M4501 2076 c-15 -18 5 -34 22 -17 9 9 7 11 -8 6 -20 -7 -20 -6 -1 9
11 9 15 16 9 16 -6 0 -16 -6 -22 -14z"/>
<path d="M2469 2069 c-12 -8 -11 -11 3 -23 14 -10 15 -15 5 -26 -10 -12 -9
-12 4 -2 9 7 25 10 35 6 14 -4 16 -3 5 4 -11 8 -11 11 0 16 8 3 3 3 -11 -1
-21 -5 -23 -4 -12 9 10 13 10 17 -1 21 -8 3 -20 1 -28 -4z m21 -9 c0 -5 -5
-10 -11 -10 -5 0 -7 5 -4 10 3 6 8 10 11 10 2 0 4 -4 4 -10z"/>
<path d="M1536 2058 c3 -5 10 -6 15 -3 13 9 11 12 -6 12 -8 0 -12 -4 -9 -9z"/>
<path d="M3346 2024 c-5 -14 -4 -15 9 -4 17 14 19 20 6 20 -5 0 -12 -7 -15
-16z"/>
<path d="M4511 2012 c-7 -13 -6 -19 2 -19 7 0 13 9 13 19 0 10 -1 18 -3 18 -1
0 -7 -8 -12 -18z"/>
<path d="M3321 1964 c0 -11 3 -14 6 -6 3 7 2 16 -1 19 -3 4 -6 -2 -5 -13z"/>
<path d="M2490 1961 c0 -6 4 -13 10 -16 6 -3 7 1 4 9 -7 18 -14 21 -14 7z"/>
<path d="M3300 1940 c0 -5 5 -10 11 -10 5 0 7 5 4 10 -3 6 -8 10 -11 10 -2 0
-4 -4 -4 -10z"/>
<path d="M4526 1938 c3 -5 10 -6 15 -3 13 9 11 12 -6 12 -8 0 -12 -4 -9 -9z"/>
<path d="M1515 1909 c-4 -6 -5 -12 -2 -15 2 -3 7 2 10 11 7 17 1 20 -8 4z"/>
<path d="M4495 1901 c-3 -5 0 -13 6 -17 8 -5 9 -3 4 6 -6 10 -3 12 13 8 12 -4
24 -3 26 1 3 4 -6 8 -19 9 -13 1 -27 -2 -30 -7z"/>
<path d="M3320 1860 c-12 -7 -10 -9 7 -7 12 0 19 5 17 9 -6 10 -6 10 -24 -2z"/>
<path d="M4510 1859 c0 -5 5 -7 10 -4 6 3 10 8 10 11 0 2 -4 4 -10 4 -5 0 -10
-5 -10 -11z"/>
<path d="M1536 1818 c3 -5 10 -6 15 -3 13 9 11 12 -6 12 -8 0 -12 -4 -9 -9z"/>
<path d="M4516 1822 c-3 -5 1 -9 9 -9 8 0 12 4 9 9 -3 4 -7 8 -9 8 -2 0 -6 -4
-9 -8z"/>
<path d="M1492 1811 c-11 -7 -11 -9 0 -14 9 -3 15 1 15 9 0 8 -1 14 -1 14 -1
0 -7 -4 -14 -9z"/>
<path d="M3284 1799 c-3 -6 -1 -16 6 -22 10 -9 11 -9 5 2 -4 8 -2 17 6 22 9 6
10 9 2 9 -6 0 -15 -5 -19 -11z"/>
<path d="M4507 1769 c6 -22 20 -26 20 -4 0 8 -6 16 -13 19 -7 3 -10 -2 -7 -15z"/>
<path d="M4460 1765 c-7 -8 -17 -12 -24 -8 -6 4 -5 0 2 -9 9 -11 10 -18 2 -23
-6 -3 -8 -10 -5 -15 3 -5 0 -12 -6 -16 -9 -5 -7 -11 6 -21 11 -7 13 -13 6 -13
-9 0 -8 -5 3 -16 19 -18 21 -35 4 -31 -7 1 -12 -11 -13 -30 -1 -19 3 -33 9
-33 6 0 4 -5 -4 -10 -8 -5 -10 -10 -5 -10 6 1 18 7 28 15 11 7 26 11 35 8 12
-4 11 -1 -3 10 -18 15 -21 15 -32 0 -12 -15 -13 -15 -13 -1 0 9 12 26 28 37
15 12 19 18 10 15 -10 -3 -18 -2 -18 4 0 5 9 12 21 15 17 5 19 9 9 27 -8 15
-17 19 -31 15 -11 -4 -19 -2 -19 4 0 6 6 12 13 12 6 1 19 2 27 3 8 0 14 11 14
26 0 15 -6 24 -13 22 -8 -2 -10 4 -6 18 7 23 -7 27 -25 5z m16 -12 c0 -10 4
-17 9 -16 6 1 11 -7 11 -18 0 -11 -6 -17 -12 -15 -6 2 -22 -3 -35 -12 -22 -15
-23 -15 -10 1 7 9 10 17 6 17 -4 0 -2 7 5 15 7 8 9 15 5 15 -4 0 -2 7 5 15 16
19 18 19 16 -2z m17 -97 c3 -8 -2 -16 -13 -19 -11 -3 -21 1 -24 10 -3 8 -1 11
4 8 6 -3 10 -1 10 4 0 16 17 13 23 -3z m-23 -51 c0 -2 -6 -8 -13 -14 -10 -8
-14 -7 -14 2 0 8 6 14 14 14 7 0 13 -1 13 -2z"/>
<path d="M4460 1720 c-9 -6 -10 -10 -3 -10 6 0 15 5 18 10 8 12 4 12 -15 0z"/>
<path d="M1536 1738 c3 -5 10 -6 15 -3 13 9 11 12 -6 12 -8 0 -12 -4 -9 -9z"/>
<path d="M3256 1701 c-4 -5 3 -7 14 -4 23 6 26 13 6 13 -8 0 -17 -4 -20 -9z"/>
<path d="M4527 1699 c7 -7 15 -10 18 -7 3 3 -2 9 -12 12 -14 6 -15 5 -6 -5z"/>
<path d="M4510 1685 c0 -5 5 -17 10 -25 5 -8 10 -10 10 -5 0 6 -5 17 -10 25
-5 8 -10 11 -10 5z"/>
<path d="M3220 1600 c-9 -6 -10 -10 -3 -10 6 0 15 5 18 10 8 12 4 12 -15 0z"/>
<path d="M4501 1596 c-15 -18 5 -34 22 -17 9 9 7 11 -8 6 -20 -7 -20 -6 -1 9
11 9 15 16 9 16 -6 0 -16 -6 -22 -14z"/>
<path d="M1491 1571 c-8 -14 -7 -20 3 -24 10 -4 12 0 8 15 -4 16 -2 19 8 13 9
-5 11 -4 6 3 -10 16 -14 15 -25 -7z"/>
<path d="M3233 1575 c-8 -22 5 -31 20 -15 10 10 9 11 -2 5 -11 -6 -13 -4 -8 8
3 10 4 17 1 17 -2 0 -7 -7 -11 -15z"/>
<path d="M4511 1532 c-7 -13 -6 -19 2 -19 7 0 13 9 13 19 0 10 -1 18 -3 18 -1
0 -7 -8 -12 -18z"/>
<path d="M4526 1458 c3 -5 10 -6 15 -3 13 9 11 12 -6 12 -8 0 -12 -4 -9 -9z"/>
<path d="M3190 1446 c0 -2 7 -7 16 -10 8 -3 12 -2 9 4 -6 10 -25 14 -25 6z"/>
<path d="M1536 1418 c3 -5 10 -6 15 -3 13 9 11 12 -6 12 -8 0 -12 -4 -9 -9z"/>
<path d="M4495 1421 c-3 -5 0 -13 6 -17 8 -5 9 -3 4 6 -6 10 -3 12 13 8 12 -4
24 -3 26 1 3 4 -6 8 -19 9 -13 1 -27 -2 -30 -7z"/>
<path d="M4450 1385 c-14 -8 -19 -14 -12 -15 6 0 12 -5 12 -11 0 -5 -5 -7 -12
-3 -7 4 -8 3 -4 -4 16 -26 44 -33 61 -15 16 15 15 18 -7 36 -17 14 -18 17 -5
13 11 -3 16 -2 12 4 -8 13 -15 12 -45 -5z m38 -43 c-8 -9 -14 -10 -16 -3 -2 6
-7 9 -11 7 -4 -3 -7 4 -7 14 0 15 4 16 23 7 19 -8 21 -13 11 -25z"/>
<path d="M3175 1379 c-4 -6 -5 -12 -2 -15 2 -3 7 2 10 11 7 17 1 20 -8 4z"/>
<path d="M4530 1339 c0 -5 5 -7 10 -4 6 3 10 8 10 11 0 2 -4 4 -10 4 -5 0 -10
-5 -10 -11z"/>
<path d="M4433 1313 c1 -12 5 -19 9 -17 12 8 9 -11 -4 -24 -7 -7 -10 -12 -7
-13 43 -6 59 -6 59 2 0 5 -3 8 -7 8 -21 -3 -34 2 -28 11 4 6 11 7 17 4 6 -4 5
2 -2 15 -6 12 -15 19 -20 16 -4 -3 -10 1 -13 7 -3 7 -4 3 -4 -9z"/>
<path d="M4494 1314 c-18 -14 -18 -15 4 -4 12 6 22 13 22 15 0 8 -5 6 -26 -11z"/>
<path d="M3155 1299 c-4 -6 -4 -13 -1 -16 3 -4 6 -1 6 6 0 8 6 11 16 7 8 -3
12 -2 9 4 -8 13 -22 13 -30 -1z"/>
<path d="M4496 1292 c-2 -4 -1 -14 4 -22 7 -11 9 -9 7 8 -1 24 -3 26 -11 14z"/>
<path d="M1490 1251 c0 -6 4 -13 10 -16 6 -3 7 1 4 9 -7 18 -14 21 -14 7z"/>
<path d="M4442 1241 c-11 -7 -11 -9 1 -14 16 -6 27 0 27 15 0 10 -11 10 -28
-1z"/>
<path d="M4516 1233 c-6 -14 -5 -15 5 -6 7 7 10 15 7 18 -3 3 -9 -2 -12 -12z"/>
<path d="M4476 1225 c-4 -11 -12 -14 -26 -10 -14 5 -20 2 -20 -9 0 -14 12 -20
33 -17 9 1 9 -13 0 -22 -3 -4 -11 -3 -17 2 -8 7 -11 -50 -11 -205 0 -209 0
-214 23 -236 20 -20 22 -20 16 -4 -5 13 -4 17 4 12 7 -4 12 -2 12 4 0 7 -8 9
-21 5 -18 -6 -19 -5 -8 13 7 12 17 18 21 16 4 -3 8 0 8 6 0 7 -8 9 -21 5 -20
-7 -20 -6 -4 19 13 20 14 25 3 21 -9 -4 -14 1 -14 15 0 27 12 25 31 -3 14 -22
46 -29 61 -15 3 4 -6 5 -21 4 -19 -3 -25 0 -21 11 3 8 2 12 -3 9 -5 -3 -14 1
-20 8 -8 9 -8 17 -2 20 5 3 11 3 14 -1 2 -5 2 -3 1 4 -2 6 2 14 9 16 7 2 9 7
6 11 -3 3 -15 -3 -27 -14 -25 -24 -29 -24 -29 -6 0 8 11 19 23 25 29 13 22 45
-8 35 -17 -5 -18 -4 -7 14 7 12 16 19 20 16 5 -2 13 5 19 17 7 12 8 19 2 15
-5 -3 -15 1 -21 8 -8 9 -8 17 -2 20 5 3 11 3 14 -1 2 -5 2 -3 1 4 -2 6 2 14 9
16 7 2 9 7 6 11 -3 3 -15 -3 -27 -14 -25 -24 -29 -24 -29 -6 0 8 11 19 23 25
29 13 22 45 -8 35 -17 -5 -18 -4 -7 14 7 12 16 19 20 16 17 -10 20 19 4 42
-13 20 -14 28 -4 40 6 8 10 17 7 20 -3 3 -8 -2 -12 -11z m14 -76 c0 -5 -3 -8
-7 -8 -20 3 -34 -2 -28 -10 3 -5 2 -12 -3 -15 -4 -2 -8 6 -8 19 0 13 3 22 7
19 4 -2 10 0 14 6 7 12 25 4 25 -11z m-18 -57 c3 8 7 8 11 1 3 -5 -4 -15 -16
-20 -19 -9 -23 -8 -23 8 0 13 4 15 12 8 8 -7 13 -6 16 3z m16 -101 c2 -6 0
-11 -5 -10 -19 3 -34 -2 -28 -10 3 -5 2 -12 -3 -15 -4 -2 -8 13 -8 35 0 37 1
38 20 26 11 -8 22 -19 24 -26z m-16 -59 c3 8 7 8 11 1 3 -5 -4 -15 -16 -20
-19 -9 -23 -8 -23 8 0 13 4 15 12 8 8 -7 13 -6 16 3z m-17 -121 c3 -5 2 -12
-3 -15 -5 -3 -9 1 -9 9 0 17 3 19 12 6z m0 -40 c3 -5 2 -12 -3 -15 -5 -3 -9 1
-9 9 0 17 3 19 12 6z"/>
<path d="M3102 1221 c-10 -6 -10 -10 3 -21 8 -7 18 -10 22 -6 3 3 1 6 -5 6 -7
0 -12 5 -12 11 0 5 5 7 10 4 6 -3 10 -1 10 4 0 13 -10 14 -28 2z"/>
<path d="M1501 1204 c0 -11 3 -14 6 -6 3 7 2 16 -1 19 -3 4 -6 -2 -5 -13z"/>
<path d="M4490 1200 c0 -5 5 -10 10 -10 6 0 10 5 10 10 0 6 -4 10 -10 10 -5 0
-10 -4 -10 -10z"/>
<path d="M1536 1178 c3 -5 10 -6 15 -3 13 9 11 12 -6 12 -8 0 -12 -4 -9 -9z"/>
<path d="M1492 1173 c-6 -2 -10 -9 -6 -14 8 -14 21 -11 21 6 0 8 -1 15 -1 14
-1 0 -7 -3 -14 -6z"/>
<path d="M3130 1176 c0 -2 8 -10 18 -17 15 -13 16 -12 3 4 -13 16 -21 21 -21
13z"/>
<path d="M4510 1146 c0 -2 7 -7 16 -10 8 -3 12 -2 9 4 -6 10 -25 14 -25 6z"/>
<path d="M1500 1120 c-12 -7 -10 -9 7 -7 12 0 19 5 17 9 -6 10 -6 10 -24 -2z"/>
<path d="M4500 1119 c0 -5 5 -7 10 -4 6 3 10 8 10 11 0 2 -4 4 -10 4 -5 0 -10
-5 -10 -11z"/>
<path d="M3130 1101 c0 -6 4 -13 10 -16 6 -3 7 1 4 9 -7 18 -14 21 -14 7z"/>
<path d="M4530 1100 c0 -5 5 -10 11 -10 5 0 7 5 4 10 -3 6 -8 10 -11 10 -2 0
-4 -4 -4 -10z"/>
<path d="M1480 1091 c0 -10 19 -25 25 -20 1 2 -3 10 -11 17 -8 7 -14 8 -14 3z"/>
<path d="M3110 1081 c0 -6 4 -13 10 -16 6 -3 7 1 4 9 -7 18 -14 21 -14 7z"/>
<path d="M1423 1035 c0 -8 4 -12 9 -9 5 3 6 10 3 15 -9 13 -12 11 -12 -6z"/>
<path d="M3086 1037 c3 -10 9 -15 12 -12 3 3 0 11 -7 18 -10 9 -11 8 -5 -6z"/>
<path d="M1494 1018 c-4 -7 -4 -10 1 -6 4 4 15 2 24 -5 14 -11 14 -10 2 6 -16
20 -18 21 -27 5z"/>
<path d="M1536 978 c3 -5 10 -6 15 -3 13 9 11 12 -6 12 -8 0 -12 -4 -9 -9z"/>
<path d="M4510 986 c0 -2 7 -7 16 -10 8 -3 12 -2 9 4 -6 10 -25 14 -25 6z"/>
<path d="M3079 953 c-13 -16 -12 -17 4 -4 16 13 21 21 13 21 -2 0 -10 -8 -17
-17z"/>
<path d="M4500 959 c0 -5 5 -7 10 -4 6 3 10 8 10 11 0 2 -4 4 -10 4 -5 0 -10
-5 -10 -11z"/>
<path d="M4530 940 c0 -5 5 -10 11 -10 5 0 7 5 4 10 -3 6 -8 10 -11 10 -2 0
-4 -4 -4 -10z"/>
<path d="M3020 880 c-9 -6 -10 -10 -3 -10 6 0 15 5 18 10 8 12 4 12 -15 0z"/>
<path d="M3050 859 c0 -5 5 -7 10 -4 6 3 10 8 10 11 0 2 -4 4 -10 4 -5 0 -10
-5 -10 -11z"/>
<path d="M3031 842 c-1 -15 -5 -21 -13 -16 -7 5 -8 3 -3 -5 10 -18 28 2 22 25
-4 15 -5 14 -6 -4z"/>
<path d="M1495 819 c-4 -5 2 -6 12 -2 16 6 17 5 3 -13 -14 -19 -14 -19 8 0 12
11 22 20 22 20 0 7 -41 3 -45 -5z"/>
<path d="M4518 776 c-19 -14 -23 -26 -10 -26 4 0 13 9 20 20 14 23 13 24 -10
6z"/>
<path d="M1468 739 c-20 -11 -24 -29 -7 -29 5 0 7 5 4 10 -9 15 6 12 25 -5 14
-13 16 -12 16 4 0 12 -5 17 -15 13 -9 -3 -12 -1 -7 6 9 14 6 14 -16 1z"/>
<path d="M1536 742 c-3 -5 1 -9 9 -9 8 0 12 4 9 9 -3 4 -7 8 -9 8 -2 0 -6 -4
-9 -8z"/>
<path d="M2993 710 c1 -21 10 -18 13 5 1 8 -2 15 -6 15 -5 0 -8 -9 -7 -20z"/>
<path d="M4494 719 c-3 -6 -3 -13 0 -16 3 -4 6 -1 6 5 0 6 7 9 15 6 8 -4 15
-4 15 -1 0 11 -30 16 -36 6z"/>
<path d="M2950 711 c0 -5 7 -11 14 -14 10 -4 13 -1 9 9 -6 15 -23 19 -23 5z"/>
<path d="M1064 691 c7 -11 46 -35 46 -28 0 3 -12 12 -26 22 -15 9 -23 12 -20
6z"/>
<path d="M1204 692 c-18 -12 -24 -40 -9 -38 8 1 18 6 22 11 4 4 2 5 -4 1 -7
-4 -13 -3 -13 3 0 5 8 15 18 20 9 6 13 10 7 11 -5 0 -15 -4 -21 -8z"/>
<path d="M1236 685 c-3 -8 -1 -15 4 -15 6 0 10 7 10 15 0 8 -2 15 -4 15 -2 0
-6 -7 -10 -15z"/>
<path d="M1266 692 c-3 -5 1 -9 9 -9 8 0 15 4 15 9 0 4 -4 8 -9 8 -6 0 -12 -4
-15 -8z"/>
<path d="M1384 691 c7 -11 46 -35 46 -28 0 3 -12 12 -26 22 -15 9 -23 12 -20
6z"/>
<path d="M2237 693 c-4 -3 -7 -11 -7 -16 0 -6 3 -7 7 -4 3 4 13 1 22 -6 14
-11 15 -10 1 8 -8 11 -15 21 -16 23 0 1 -4 -1 -7 -5z"/>
<path d="M2347 680 c7 -26 19 -34 29 -19 4 8 3 9 -4 5 -7 -4 -12 -1 -12 8 0 8
-4 17 -9 20 -5 4 -7 -3 -4 -14z"/>
<path d="M2399 693 c0 -5 -2 -16 -4 -25 -2 -10 0 -18 5 -18 4 0 8 11 8 25 0
22 -7 36 -9 18z"/>
<path d="M2484 692 c-18 -12 -24 -40 -9 -38 8 1 18 6 22 11 4 4 2 5 -4 1 -7
-4 -13 -3 -13 3 0 5 8 15 18 20 9 6 13 10 7 11 -5 0 -15 -4 -21 -8z"/>
<path d="M2516 685 c-3 -8 -1 -15 4 -15 6 0 10 7 10 15 0 8 -2 15 -4 15 -2 0
-6 -7 -10 -15z"/>
<path d="M2546 692 c-3 -5 1 -9 9 -9 8 0 15 4 15 9 0 4 -4 8 -9 8 -6 0 -12 -4
-15 -8z"/>
<path d="M2664 691 c7 -11 46 -35 46 -28 0 3 -12 12 -26 22 -15 9 -23 12 -20
6z"/>
<path d="M2804 692 c-18 -12 -24 -40 -9 -38 8 1 18 6 22 11 4 4 2 5 -4 1 -7
-4 -13 -3 -13 3 0 5 8 15 18 20 9 6 13 10 7 11 -5 0 -15 -4 -21 -8z"/>
<path d="M2836 685 c-3 -8 -1 -15 4 -15 6 0 10 7 10 15 0 8 -2 15 -4 15 -2 0
-6 -7 -10 -15z"/>
<path d="M3740 693 c0 -19 14 -22 35 -7 10 8 14 14 8 14 -7 0 -15 -5 -19 -11
-4 -8 -9 -7 -15 2 -6 10 -9 10 -9 2z"/>
<path d="M3796 685 c-3 -8 -1 -15 4 -15 6 0 10 7 10 15 0 8 -2 15 -4 15 -2 0
-6 -7 -10 -15z"/>
<path d="M3826 692 c-3 -5 1 -9 9 -9 8 0 15 4 15 9 0 4 -4 8 -9 8 -6 0 -12 -4
-15 -8z"/>
<path d="M3944 691 c7 -11 46 -35 46 -28 0 3 -12 12 -26 22 -15 9 -23 12 -20
6z"/>
<path d="M4084 692 c-18 -12 -24 -40 -9 -38 8 1 18 6 22 11 4 4 2 5 -4 1 -7
-4 -13 -3 -13 3 0 5 8 15 18 20 9 6 13 10 7 11 -5 0 -15 -4 -21 -8z"/>
<path d="M4116 685 c-3 -8 -1 -15 4 -15 6 0 10 7 10 15 0 8 -2 15 -4 15 -2 0
-6 -7 -10 -15z"/>
<path d="M4372 680 c0 -14 2 -19 5 -12 2 6 2 18 0 25 -3 6 -5 1 -5 -13z"/>
<path d="M1031 687 c2 -1 13 -9 24 -17 19 -14 19 -14 6 3 -7 9 -18 17 -24 17
-6 0 -8 -1 -6 -3z"/>
<path d="M1351 687 c2 -1 13 -9 24 -17 19 -14 19 -14 6 3 -7 9 -18 17 -24 17
-6 0 -8 -1 -6 -3z"/>
<path d="M2174 682 c4 -3 14 -7 22 -8 9 -1 13 0 10 4 -4 3 -14 7 -22 8 -9 1
-13 0 -10 -4z"/>
<path d="M2304 678 c-5 -7 -3 -8 6 -3 9 6 12 4 8 -7 -4 -8 -1 -15 7 -15 7 0
10 8 7 19 -5 21 -17 23 -28 6z"/>
<path d="M2631 687 c2 -1 13 -9 24 -17 19 -14 19 -14 6 3 -7 9 -18 17 -24 17
-6 0 -8 -1 -6 -3z"/>
<path d="M2926 682 c-3 -5 1 -9 9 -9 8 0 15 4 15 9 0 4 -4 8 -9 8 -6 0 -12 -4
-15 -8z"/>
<path d="M3911 687 c2 -1 13 -9 24 -17 19 -14 19 -14 6 3 -7 9 -18 17 -24 17
-6 0 -8 -1 -6 -3z"/>
<path d="M4416 675 c-9 -26 -7 -32 5 -12 6 10 9 21 6 23 -2 3 -7 -2 -11 -11z"/>
<path d="M780 660 c-9 -6 -10 -10 -3 -10 6 0 15 5 18 10 8 12 4 12 -15 0z"/>
<path d="M908 663 c6 -2 18 -2 25 0 6 3 1 5 -13 5 -14 0 -19 -2 -12 -5z"/>
<path d="M1276 658 c3 -5 10 -6 15 -3 13 9 11 12 -6 12 -8 0 -12 -4 -9 -9z"/>
<path d="M1470 659 c0 -5 5 -7 10 -4 6 3 10 8 10 11 0 2 -4 4 -10 4 -5 0 -10
-5 -10 -11z"/>
<path d="M2556 658 c3 -5 10 -6 15 -3 13 9 11 12 -6 12 -8 0 -12 -4 -9 -9z"/>
<path d="M3760 660 c-9 -6 -10 -10 -3 -10 6 0 15 5 18 10 8 12 4 12 -15 0z"/>
<path d="M3836 658 c3 -5 10 -6 15 -3 13 9 11 12 -6 12 -8 0 -12 -4 -9 -9z"/>
<path d="M4268 663 c6 -2 18 -2 25 0 6 3 1 5 -13 5 -14 0 -19 -2 -12 -5z"/>
<path d="M4495 660 c3 -5 8 -10 11 -10 2 0 4 5 4 10 0 6 -5 10 -11 10 -5 0 -7
-4 -4 -10z"/>
<path d="M1016 647 c3 -10 9 -15 12 -12 3 3 0 11 -7 18 -10 9 -11 8 -5 -6z"/>
<path d="M1256 647 c3 -10 9 -15 12 -12 3 3 0 11 -7 18 -10 9 -11 8 -5 -6z"/>
<path d="M1336 647 c3 -10 9 -15 12 -12 3 3 0 11 -7 18 -10 9 -11 8 -5 -6z"/>
<path d="M2536 647 c3 -10 9 -15 12 -12 3 3 0 11 -7 18 -10 9 -11 8 -5 -6z"/>
<path d="M2616 647 c3 -10 9 -15 12 -12 3 3 0 11 -7 18 -10 9 -11 8 -5 -6z"/>
<path d="M2856 647 c3 -10 9 -15 12 -12 3 3 0 11 -7 18 -10 9 -11 8 -5 -6z"/>
<path d="M3816 647 c3 -10 9 -15 12 -12 3 3 0 11 -7 18 -10 9 -11 8 -5 -6z"/>
<path d="M3896 647 c3 -10 9 -15 12 -12 3 3 0 11 -7 18 -10 9 -11 8 -5 -6z"/>
<path d="M4136 647 c3 -10 9 -15 12 -12 3 3 0 11 -7 18 -10 9 -11 8 -5 -6z"/>
<path d="M1046 638 c3 -5 10 -6 15 -3 13 9 11 12 -6 12 -8 0 -12 -4 -9 -9z"/>
<path d="M2646 638 c3 -5 10 -6 15 -3 13 9 11 12 -6 12 -8 0 -12 -4 -9 -9z"/>
<path d="M3926 638 c3 -5 10 -6 15 -3 13 9 11 12 -6 12 -8 0 -12 -4 -9 -9z"/>
</g>
</svg>
